<svg xmlns="http://www.w3.org/2000/svg" xmlns:xlink="http://www.w3.org/1999/xlink" width="500" zoomAndPan="magnify" viewBox="0 0 375 374.999991" height="500" preserveAspectRatio="xMidYMid meet" version="1.0"><defs><g/><clipPath id="99ab94da65"><path d="M 192 134 L 316 134 L 316 237 L 192 237 Z M 192 134 " clip-rule="nonzero"/></clipPath><clipPath id="87e6ba7d04"><path d="M 273.683594 84.492188 L 356.949219 185.945312 L 234.046875 286.820312 L 150.777344 185.367188 Z M 273.683594 84.492188 " clip-rule="nonzero"/></clipPath><clipPath id="81604e2524"><path d="M 273.683594 84.492188 L 356.949219 185.945312 L 234.046875 286.820312 L 150.777344 185.367188 Z M 273.683594 84.492188 " clip-rule="nonzero"/></clipPath><clipPath id="55055c52ef"><path d="M 273.703125 84.519531 L 357.054688 186.074219 L 233.992188 287.078125 L 150.644531 185.523438 Z M 273.703125 84.519531 " clip-rule="nonzero"/></clipPath><clipPath id="6247b0d856"><path d="M 273.703125 84.519531 L 356.925781 185.917969 L 234.023438 286.789062 L 150.800781 185.394531 Z M 273.703125 84.519531 " clip-rule="nonzero"/></clipPath><clipPath id="05053dd2e6"><path d="M 27.195312 185.839844 L 318.386719 185.839844 L 318.386719 189.589844 L 27.195312 189.589844 Z M 27.195312 185.839844 " clip-rule="nonzero"/></clipPath><clipPath id="79fd1fd8db"><path d="M 37.5 123 L 135 123 L 135 227 L 37.5 227 Z M 37.5 123 " clip-rule="nonzero"/></clipPath></defs><rect x="-37.5" width="450" fill="#ffffff" y="-37.499999" height="449.999989" fill-opacity="1"/><rect x="-37.5" width="450" fill="#ffffff" y="-37.499999" height="449.999989" fill-opacity="1"/><g clip-path="url(#99ab94da65)"><g clip-path="url(#87e6ba7d04)"><g clip-path="url(#81604e2524)"><g clip-path="url(#55055c52ef)"><g clip-path="url(#6247b0d856)"><path fill="#629231" d="M 212.253906 134.957031 L 192.410156 236.09375 L 295.476562 236.355469 L 315.316406 135.21875 L 212.253906 134.957031 " fill-opacity="1" fill-rule="nonzero"/></g></g></g></g></g><g clip-path="url(#05053dd2e6)"><path fill="#2e5917" d="M 27.195312 185.839844 L 318.386719 185.839844 L 318.386719 189.589844 L 27.195312 189.589844 Z M 27.195312 185.839844 " fill-opacity="1" fill-rule="nonzero"/></g><g fill="#275012" fill-opacity="1"><g transform="translate(129.327312, 184.63687)"><g><path d="M 16.410156 0.714844 C 25.46875 0.714844 31.890625 -3.710938 35.601562 -14.125 L 25.328125 -18.121094 C 23.898438 -13.625 21.472656 -10.128906 17.90625 -10.128906 C 13.199219 -10.128906 13.699219 -15.195312 15.480469 -23.757812 C 17.550781 -33.316406 20.261719 -39.167969 24.613281 -39.167969 C 28.539062 -39.167969 28.964844 -37.097656 28.464844 -32.605469 L 39.667969 -34.171875 C 40.523438 -44.589844 35.386719 -50.011719 25.328125 -50.011719 C 11.058594 -50.011719 5.566406 -37.242188 3.066406 -25.683594 C 0.429688 -13.054688 1.285156 0.714844 16.410156 0.714844 Z M 16.410156 0.714844 "/></g></g></g><g fill="#275012" fill-opacity="1"><g transform="translate(166.567268, 184.63687)"><g><path d="M 25.113281 -49.226562 L 9.0625 -49.226562 L -1.355469 0 L 11.699219 0 L 15.125 -16.550781 L 16.765625 -16.550781 L 19.40625 0.0703125 L 32.320312 0.0703125 L 27.894531 -18.691406 C 32.816406 -21.117188 36.527344 -25.613281 37.8125 -31.820312 C 40.023438 -42.164062 35.101562 -49.226562 25.113281 -49.226562 Z M 19.976562 -39.167969 L 22.617188 -39.167969 C 25.398438 -39.167969 26.253906 -36.671875 25.542969 -33.175781 C 24.613281 -28.609375 21.761719 -25.898438 18.835938 -25.898438 L 17.121094 -25.898438 Z M 19.976562 -39.167969 "/></g></g></g><g fill="#275012" fill-opacity="1"><g transform="translate(203.379182, 184.63687)"><g><path d="M -1.355469 0 L 11.488281 0 L 21.902344 -49.226562 L 9.0625 -49.226562 Z M -1.355469 0 "/></g></g></g><g fill="#275012" fill-opacity="1"><g transform="translate(221.214415, 184.63687)"><g><path d="M 16.410156 0.714844 C 25.46875 0.714844 31.890625 -3.710938 35.601562 -14.125 L 25.328125 -18.121094 C 23.898438 -13.625 21.472656 -10.128906 17.90625 -10.128906 C 13.199219 -10.128906 13.699219 -15.195312 15.480469 -23.757812 C 17.550781 -33.316406 20.261719 -39.167969 24.613281 -39.167969 C 28.539062 -39.167969 28.964844 -37.097656 28.464844 -32.605469 L 39.667969 -34.171875 C 40.523438 -44.589844 35.386719 -50.011719 25.328125 -50.011719 C 11.058594 -50.011719 5.566406 -37.242188 3.066406 -25.683594 C 0.429688 -13.054688 1.285156 0.714844 16.410156 0.714844 Z M 16.410156 0.714844 "/></g></g></g><g clip-path="url(#79fd1fd8db)"><path fill="#629231" d="M 127.445312 201.175781 C 125.96875 195.851562 124.847656 191.890625 124.707031 191.785156 C 124.566406 191.679688 123.054688 191.679688 123.054688 191.679688 L 119.679688 182.042969 C 119.679688 182.042969 121.121094 182.253906 121.402344 181.832031 C 121.683594 181.410156 121.789062 180.359375 121.613281 180.289062 C 121.4375 180.21875 121.121094 180.183594 121.121094 180.183594 C 121.121094 180.183594 121.507812 180.042969 121.507812 179.0625 C 121.507812 178.082031 121.226562 178.011719 121.226562 178.011719 C 121.226562 178.011719 121.386719 177.449219 121.386719 176.960938 C 121.386719 176.46875 120.945312 176.066406 120.945312 176.066406 C 120.945312 176.066406 121.191406 175.242188 121.050781 174.875 C 120.910156 174.507812 120.382812 174.347656 120.226562 174.367188 C 120.066406 174.382812 119.574219 174.402344 119.316406 174.519531 C 119.0625 174.636719 118.617188 174.261719 118.359375 174.753906 C 118.101562 175.242188 117.703125 172.835938 117.539062 172.347656 C 117.375 171.855469 117.1875 170.289062 116.953125 170.148438 C 116.71875 170.007812 118.117188 162.207031 117.644531 158.472656 C 117.167969 154.742188 117.167969 150.535156 117.167969 150.535156 C 117.167969 150.535156 116.800781 145.648438 115.90625 143.386719 C 115.007812 141.125 113.8125 139.6875 113.8125 139.6875 C 113.8125 139.6875 113.550781 138.339844 113.320312 138.078125 C 113.09375 137.8125 111.707031 137.183594 111.6875 136.796875 C 111.671875 136.414062 111.25 135.027344 111.6875 134.78125 C 112.128906 134.539062 113.953125 133.292969 114.09375 132.785156 C 114.234375 132.277344 114.761719 128.859375 112.425781 125.582031 C 110.089844 122.304688 103.992188 123.113281 102.675781 124.179688 C 101.359375 125.25 100.515625 128.230469 100.109375 128.949219 C 99.707031 129.664062 99.320312 130 98.882812 130.070312 C 98.441406 130.140625 97.546875 130.261719 97.386719 130.769531 C 97.230469 131.277344 100.953125 131.402344 100.953125 131.402344 C 100.953125 131.402344 101.183594 132.117188 100.9375 132.558594 C 100.691406 132.996094 100.621094 133.257812 100.566406 133.34375 C 100.515625 133.433594 97.863281 133.414062 97.703125 133.609375 C 97.546875 133.800781 98.300781 136.957031 98.355469 137.324219 C 98.40625 137.691406 100.566406 141.160156 100.917969 141.195312 C 101.269531 141.230469 103.328125 139.179688 103.484375 139.144531 C 103.640625 139.109375 104.820312 139.199219 105.066406 139.25 C 105.3125 139.304688 105.820312 140.496094 105.820312 140.496094 C 105.820312 140.496094 104.433594 141.492188 104.414062 141.703125 C 104.398438 141.914062 104.027344 143.632812 103.992188 143.703125 C 103.957031 143.773438 103.011719 144.4375 102.941406 144.875 C 102.871094 145.3125 102.921875 146.398438 102.042969 148.679688 C 101.164062 150.957031 98.800781 155.265625 98.800781 155.265625 C 98.800781 155.265625 96.269531 154.519531 95.027344 154.097656 C 93.789062 153.679688 90.460938 151.503906 90.460938 151.503906 C 90.460938 151.503906 91 150.21875 90.929688 150.007812 C 90.859375 149.800781 88.984375 149.320312 88.761719 149.4375 C 88.539062 149.554688 87.976562 149.601562 87.976562 149.601562 C 87.976562 149.601562 87.472656 148.910156 87.507812 148.804688 C 87.542969 148.699219 87.964844 148.175781 88.035156 147.71875 C 88.105469 147.265625 87.054688 145.746094 86.761719 145.171875 C 86.46875 144.601562 84.148438 143.351562 83.867188 143.292969 C 83.585938 143.234375 82.765625 143.5625 82.671875 144.039062 C 82.578125 144.519531 82.671875 145.640625 82.671875 145.640625 C 82.671875 145.640625 81.640625 145.605469 81.488281 146.074219 C 81.488281 146.074219 81.195312 145.429688 80.738281 145.289062 C 80.285156 145.148438 80.53125 144.613281 80.296875 144.238281 C 80.0625 143.863281 79.582031 143.597656 79.113281 143.675781 C 78.644531 143.757812 77.132812 144.996094 77.132812 144.996094 C 77.132812 144.996094 76.710938 144.074219 76.136719 144.144531 C 75.5625 144.214844 74.753906 145.371094 74.601562 146.199219 C 74.449219 147.03125 74.648438 148.558594 74.683594 148.769531 C 74.71875 148.980469 74.742188 149.179688 74.660156 149.320312 C 74.578125 149.460938 73.949219 150.089844 73.878906 150.441406 C 73.808594 150.792969 73.890625 151.046875 73.960938 151.1875 C 74.03125 151.328125 73.9375 151.714844 73.9375 151.84375 C 73.9375 151.972656 74.019531 152.078125 74.019531 152.078125 C 74.019531 152.078125 73.023438 153.222656 72.742188 153.199219 C 72.460938 153.175781 70 151.246094 69.671875 150.953125 C 69.34375 150.664062 66.898438 147.601562 66.054688 146.644531 C 65.210938 145.6875 63.617188 144.449219 63.617188 144.449219 C 63.617188 144.449219 65.046875 142.882812 65.773438 141.574219 C 66.5 140.265625 67.132812 138.746094 67.132812 138.375 C 67.132812 138 66.21875 137.507812 65.09375 137.484375 C 63.96875 137.460938 63.5 137.4375 63.5 137.4375 L 63.3125 136.015625 C 63.3125 136.015625 67.367188 135.921875 67.460938 135.289062 C 67.554688 134.660156 66.054688 134.121094 65.679688 133.699219 C 65.304688 133.28125 63.757812 129.355469 61.136719 127.90625 C 58.511719 126.457031 54.367188 127.253906 52.492188 128.933594 C 50.617188 130.617188 49.914062 134.332031 49.914062 135.3125 C 49.914062 136.292969 49.679688 137.160156 50.054688 137.230469 C 50.429688 137.296875 50.78125 137.183594 50.78125 137.296875 C 50.78125 137.414062 51.695312 137.976562 51.976562 138.582031 C 52.257812 139.191406 53.429688 140.078125 53.429688 140.078125 L 53.125 140.921875 C 53.125 140.921875 52.445312 140.453125 52.257812 141.105469 C 52.070312 141.761719 52.46875 142.53125 51.90625 142.976562 C 51.34375 143.421875 49.984375 144.660156 50.007812 144.914062 C 50.03125 145.171875 46.542969 148.582031 46.519531 149.496094 C 46.496094 150.40625 45.886719 154.890625 45.886719 155.054688 C 45.886719 155.21875 45.96875 160.136719 45.546875 162.484375 C 45.125 164.832031 44.703125 168.933594 44.5625 170.894531 C 44.421875 172.859375 44.421875 174.261719 44.421875 174.261719 C 44.421875 174.261719 44.105469 174.46875 44.070312 175.03125 C 44.035156 175.59375 44 176.503906 43.859375 176.503906 C 43.71875 176.503906 42.5625 176.117188 42.210938 176.117188 C 41.859375 176.117188 40.804688 177.835938 40.628906 178.359375 C 40.453125 178.886719 40.382812 179.761719 40.628906 180.007812 C 40.875 180.253906 40.664062 181.96875 40.664062 182.285156 C 40.664062 182.601562 41.015625 182.847656 41.015625 184.355469 C 41.015625 185.859375 41.191406 186.246094 41.4375 186.5625 C 41.683594 186.875 43.121094 187.683594 43.296875 187.613281 C 43.472656 187.542969 41.367188 196.828125 40.242188 201.875 C 39.117188 206.921875 37.5 213.582031 37.5 216.527344 C 37.5 219.46875 37.757812 225.101562 37.945312 225.332031 C 38.132812 225.566406 39.445312 225.542969 39.632812 225.496094 C 39.820312 225.449219 40.640625 224.703125 40.6875 224.140625 C 40.734375 223.582031 41.804688 211.722656 42.753906 205.890625 C 43.703125 200.054688 46.390625 184.492188 46.390625 184.492188 C 46.390625 184.492188 47.09375 185.6875 47.691406 186 C 48.289062 186.316406 49.167969 186.175781 49.449219 185.964844 C 49.726562 185.753906 49.9375 184.667969 49.902344 183.757812 C 49.867188 182.847656 49.902344 182.214844 49.902344 182.214844 C 49.902344 182.214844 50.605469 183.40625 50.605469 183.757812 C 50.605469 184.109375 50.640625 188.628906 50.640625 189.925781 C 50.640625 191.222656 50.605469 193.324219 50.394531 194.308594 C 50.183594 195.289062 49.484375 196.128906 49.554688 197.074219 C 49.625 198.023438 49.378906 199.074219 49.0625 199.878906 C 48.746094 200.683594 46.441406 204.628906 46.230469 207.675781 C 46.023438 210.726562 46.335938 212.199219 46.023438 213.355469 C 45.707031 214.511719 44.808594 217.558594 44.863281 217.875 C 44.914062 218.191406 44.597656 218.875 44.230469 219.398438 C 43.859375 219.925781 43.125 222.238281 42.808594 222.605469 C 42.492188 222.972656 41.964844 223.445312 42.070312 223.972656 C 42.175781 224.5 44.230469 225.234375 46.285156 225.445312 C 48.339844 225.65625 50.710938 226.285156 53.925781 226.546875 C 57.140625 226.8125 58.988281 225.496094 58.988281 225.496094 C 58.988281 225.496094 61.359375 226.339844 63.21875 226.511719 C 65.082031 226.6875 68.457031 227.039062 69.125 226.582031 C 69.789062 226.128906 70.421875 224.515625 69.195312 223.5 C 67.964844 222.484375 66.101562 222.660156 64.871094 221.78125 C 63.640625 220.90625 62.835938 220.519531 62.835938 220.519531 C 62.835938 220.519531 64.871094 208.710938 64.976562 207.308594 C 65.082031 205.90625 65.46875 202.191406 66.277344 200.824219 C 67.085938 199.457031 67.613281 198.019531 67.613281 197.003906 C 67.613281 195.988281 67.226562 191.644531 67.226562 189.820312 C 67.226562 188 67.402344 186.980469 66.769531 186.804688 C 66.136719 186.632812 65.574219 186.667969 65.574219 186.667969 C 65.574219 186.667969 66.3125 183.195312 66.136719 179.203125 C 65.960938 175.207031 64.730469 170.683594 64.730469 169.914062 C 64.730469 169.144531 65.046875 168.125 65.046875 167.496094 C 65.046875 166.867188 64.589844 164.9375 64.589844 163.886719 C 64.589844 162.835938 64.835938 161.398438 65.011719 160.558594 C 65.1875 159.714844 65.714844 154.25 65.714844 154.25 C 65.714844 154.25 67.648438 155.964844 70.421875 157.296875 C 73.199219 158.628906 74.921875 158.734375 75.410156 158.453125 C 75.902344 158.171875 77.273438 153.863281 77.449219 153.40625 C 77.625 152.953125 78.398438 151.445312 78.714844 151.269531 C 79.03125 151.09375 80.261719 150.429688 80.261719 150.429688 L 80.648438 150.671875 C 80.648438 150.671875 80.015625 151.339844 80.015625 151.832031 C 80.015625 152.320312 80.578125 153.335938 81.175781 153.652344 C 81.769531 153.96875 82.15625 153.617188 82.367188 153.898438 C 82.578125 154.179688 82.160156 154.074219 83.035156 154.492188 C 83.914062 154.914062 85.285156 155.335938 85.53125 155.265625 C 85.777344 155.195312 86.691406 154.25 86.691406 154.25 C 86.691406 154.25 87.851562 155.089844 88.167969 155.195312 C 88.484375 155.300781 88.519531 155.054688 88.695312 155.335938 C 88.871094 155.613281 90.273438 157.367188 93.121094 158.980469 C 95.964844 160.589844 98.917969 162.0625 99.515625 161.992188 C 100.113281 161.921875 100.746094 161.398438 100.746094 161.398438 C 100.746094 161.398438 100.5 163.042969 100.359375 163.851562 C 100.21875 164.65625 99.796875 166.058594 99.902344 166.65625 C 100.007812 167.25 100.640625 168.511719 100.640625 168.511719 C 100.640625 168.511719 99.460938 171.5625 99.460938 173.769531 C 99.460938 175.976562 99.355469 177.132812 99.355469 178.078125 C 99.355469 179.027344 99.25 187.804688 99.25 187.804688 C 99.25 187.804688 98.460938 187.226562 98.460938 189.59375 C 98.460938 191.957031 98.671875 192.851562 98.671875 194.324219 C 98.671875 195.796875 97.933594 196.320312 97.933594 196.320312 C 97.933594 196.320312 94.71875 195.375 93.558594 196.582031 C 92.398438 197.792969 94.191406 199.054688 94.457031 199.527344 C 94.71875 200 99.410156 204.417969 99.515625 204.628906 C 99.621094 204.835938 100.042969 205.785156 100.042969 206.203125 C 100.042969 206.625 100.515625 213.933594 100.253906 215.457031 C 99.988281 216.980469 99.671875 219.082031 99.671875 219.976562 C 99.671875 220.871094 99.832031 221.554688 99.832031 221.554688 C 99.832031 221.554688 98.214844 222.972656 97.441406 223.007812 C 96.667969 223.042969 94.703125 223.007812 94.175781 222.902344 C 93.648438 222.796875 92.664062 223.183594 92.242188 223.847656 C 91.820312 224.515625 91.890625 225.179688 92.734375 225.53125 C 93.578125 225.882812 95.542969 226.300781 97.898438 226.617188 C 100.253906 226.933594 102.324219 226.164062 103.34375 226.269531 C 104.363281 226.371094 108.613281 227.25 109.667969 226.40625 C 110.722656 225.566406 109.632812 224.796875 109.632812 224.550781 C 109.632812 224.304688 109.386719 222.449219 109.070312 221.328125 C 108.753906 220.203125 108.613281 220.308594 108.859375 219.644531 C 109.105469 218.976562 109.351562 215.648438 109.738281 214.210938 C 110.125 212.773438 110.828125 209.761719 110.828125 209.761719 C 110.828125 209.761719 115.851562 213.582031 116.695312 214.210938 C 117.539062 214.84375 121.160156 217.820312 121.160156 217.820312 C 121.160156 217.820312 121.71875 219.082031 121.4375 220.132812 C 121.160156 221.1875 121.4375 221.152344 120.386719 221.957031 C 119.332031 222.761719 119.191406 223.710938 119.402344 224.375 C 119.613281 225.039062 120.386719 225.179688 120.738281 225.214844 C 121.089844 225.25 124.144531 222.972656 124.917969 222.132812 C 125.691406 221.292969 127.0625 218.769531 127.0625 218.769531 C 127.0625 218.769531 129.871094 224.339844 130.222656 224.445312 C 130.574219 224.550781 131.875 224.339844 133.035156 223.851562 C 134.191406 223.359375 135 222.238281 135 222.238281 C 135 222.238281 128.921875 206.503906 127.445312 201.175781 Z M 98.707031 134.203125 C 98.757812 134.046875 100.25 134.257812 100.25 134.257812 C 100.25 134.257812 100.179688 134.539062 100.269531 134.816406 C 100.355469 135.097656 101.253906 135.167969 101.304688 135.167969 C 101.359375 135.167969 101.304688 135.695312 101.269531 135.816406 C 101.234375 135.9375 101.375 136.394531 101.375 136.394531 L 98.882812 136.570312 C 98.882812 136.570312 98.652344 134.363281 98.707031 134.203125 Z M 100.953125 140.144531 L 99.003906 137.410156 C 99.003906 137.410156 101.535156 136.992188 101.535156 137.042969 C 101.535156 137.097656 101.816406 137.480469 101.816406 137.621094 C 101.816406 137.761719 101.726562 138.09375 101.710938 138.253906 C 101.691406 138.410156 102.113281 138.917969 102.113281 138.917969 Z M 55.453125 214.460938 C 55.277344 215.265625 55.453125 216.808594 55.347656 217.367188 C 55.242188 217.929688 55.488281 219.890625 55.347656 220.066406 C 55.207031 220.242188 54.292969 222.132812 54.292969 222.132812 C 54.292969 222.132812 52.855469 221.433594 52.855469 221.292969 C 52.855469 221.152344 53.449219 218.875 53.660156 218 C 53.871094 217.121094 55.59375 212.320312 55.59375 212.320312 C 55.59375 212.320312 55.628906 213.652344 55.453125 214.457031 Z M 65.105469 138.492188 L 66.675781 138.503906 C 66.675781 138.503906 66.300781 139.847656 65.539062 141.285156 L 64.613281 141.296875 C 64.613281 141.296875 65.105469 139.566406 65.105469 138.492188 Z M 64.015625 138.539062 C 64.015625 138.539062 64.683594 138.46875 64.695312 138.574219 C 64.707031 138.679688 64.296875 141.085938 64.074219 141.355469 L 62.832031 141.34375 C 62.832031 141.34375 62.691406 140.511719 62.621094 140.441406 C 62.550781 140.371094 64.015625 138.539062 64.015625 138.539062 Z M 62.152344 139.050781 C 62.1875 138.890625 62.515625 138.621094 62.597656 138.480469 C 62.597656 138.480469 63.488281 138.480469 63.464844 138.585938 C 63.441406 138.691406 62.339844 140.128906 62.339844 140.128906 C 62.339844 140.128906 62.117188 139.214844 62.152344 139.054688 Z M 62.082031 143.933594 C 61.90625 143.957031 60.570312 143.433594 60.324219 143.246094 C 60.082031 143.058594 60.160156 142.652344 60.160156 142.652344 C 60.160156 142.652344 60.78125 142.722656 61.144531 142.6875 C 61.507812 142.652344 62.09375 142.054688 62.1875 142.054688 C 62.28125 142.054688 62.996094 143.105469 62.996094 143.105469 C 62.996094 143.105469 62.257812 143.914062 62.082031 143.9375 Z M 62.515625 141.785156 C 62.515625 141.785156 63.957031 141.761719 64.015625 141.761719 L 63.335938 142.730469 Z M 64.496094 141.738281 L 65.304688 141.761719 L 63.617188 143.796875 C 63.617188 143.796875 63.59375 143.140625 63.558594 143.070312 C 63.523438 143 64.496094 141.738281 64.496094 141.738281 Z M 120.4375 205.257812 C 120.015625 204.679688 117.222656 201.894531 116.695312 201.371094 C 116.167969 200.84375 114.113281 199.582031 113.164062 199.109375 C 112.214844 198.636719 110.84375 197.53125 110.792969 197.058594 C 110.738281 196.585938 110.582031 194.21875 110.6875 193.378906 C 110.789062 192.539062 112.003906 189.226562 112.371094 188.28125 C 112.742188 187.332031 114.214844 183.390625 114.375 183.074219 C 114.53125 182.761719 115.691406 181.128906 115.902344 181.183594 C 116.113281 181.234375 117.0625 181.65625 117.0625 181.65625 C 117.0625 181.65625 120.332031 191.960938 120.332031 192.484375 C 120.332031 193.011719 119.382812 193.957031 119.382812 193.957031 L 123.335938 206.785156 C 123.335938 206.785156 120.855469 205.835938 120.4375 205.257812 Z M 120.4375 205.257812 " fill-opacity="1" fill-rule="nonzero"/></g><g fill="#ffffff" fill-opacity="1"><g transform="translate(201.32812, 224.57856)"><g><path d="M 0.988281 6.980469 C 1.363281 6.941406 1.664062 6.683594 1.753906 6.347656 C 1.910156 5.902344 2.132812 5.351562 2.4375 4.640625 C 2.519531 4.457031 2.613281 4.394531 2.8125 4.351562 C 3.777344 4.175781 4.648438 4.0625 5.371094 3.988281 C 8.140625 3.707031 10.058594 3.738281 10.945312 4.050781 C 11.078125 4.113281 11.230469 4.121094 11.355469 4.109375 C 11.855469 4.058594 12.210938 3.621094 12.160156 3.121094 C 12.125 2.769531 11.894531 2.46875 11.554688 2.351562 C 10.378906 1.941406 8.230469 1.882812 5.1875 2.191406 C 4.765625 2.234375 4.289062 2.285156 3.742188 2.367188 C 3.523438 2.414062 3.515625 2.363281 3.597656 2.179688 C 8.042969 -6.640625 18.964844 -24.839844 27.929688 -37.015625 C 28.0625 -37.207031 28.132812 -37.238281 28.359375 -37.234375 C 30.207031 -37.171875 32.273438 -36.929688 34.324219 -36.582031 C 34.425781 -36.570312 34.503906 -36.550781 34.605469 -36.5625 C 35.101562 -36.613281 35.460938 -37.050781 35.410156 -37.550781 C 35.371094 -37.949219 35.058594 -38.296875 34.648438 -38.355469 C 33.058594 -38.621094 31.375 -38.828125 29.671875 -38.980469 C 29.46875 -38.988281 29.441406 -39.007812 29.550781 -39.171875 L 30.394531 -40.265625 C 30.527344 -40.457031 30.605469 -40.691406 30.582031 -40.914062 C 30.53125 -41.414062 30.089844 -41.773438 29.59375 -41.722656 C 29.34375 -41.695312 29.128906 -41.574219 28.972656 -41.378906 C 28.773438 -41.109375 28.570312 -40.859375 28.371094 -40.613281 C 28.035156 -40.175781 27.703125 -39.738281 27.371094 -39.277344 C 27.261719 -39.113281 27.144531 -39.050781 26.941406 -39.058594 C 25.707031 -39.058594 24.601562 -39.019531 23.628906 -38.921875 C 20.160156 -38.566406 17.175781 -37.9375 16.203125 -37.359375 C 15.917969 -37.179688 15.726562 -36.832031 15.761719 -36.480469 C 15.8125 -35.984375 16.253906 -35.625 16.753906 -35.675781 C 16.875 -35.6875 17.023438 -35.726562 17.140625 -35.816406 C 17.855469 -36.242188 20.71875 -36.808594 23.8125 -37.125 C 24.359375 -37.179688 24.960938 -37.21875 25.589844 -37.230469 C 25.839844 -37.230469 25.84375 -37.207031 25.710938 -37.042969 C 16.429688 -24.253906 5.414062 -5.71875 1.398438 2.578125 C 1.339844 2.761719 1.246094 2.820312 1.046875 2.867188 C -1.445312 3.371094 -4.316406 4.117188 -6.714844 5.09375 C -7.101562 5.234375 -7.339844 5.636719 -7.296875 6.035156 C -7.246094 6.535156 -6.808594 6.890625 -6.308594 6.839844 C -6.207031 6.832031 -6.136719 6.800781 -6.039062 6.765625 C -4.367188 6.113281 -2.265625 5.472656 0.144531 4.898438 C 0.34375 4.855469 0.371094 4.875 0.292969 5.085938 L 0.0351562 5.792969 C 0 5.921875 -0.015625 6.050781 0 6.175781 C 0.0507812 6.671875 0.488281 7.03125 0.988281 6.980469 Z M 0.988281 6.980469 "/></g></g></g><g fill="#ffffff" fill-opacity="1"><g transform="translate(226.092983, 222.055736)"><g><path d="M -3.148438 0.523438 C -2.796875 0.488281 -2.304688 0.132812 -0.96875 -1.085938 C -0.78125 -1.253906 -0.574219 -1.429688 -0.367188 -1.625 C 3.699219 -5.242188 11.949219 -12.558594 15.316406 -12.898438 C 15.589844 -12.929688 15.734375 -12.765625 15.757812 -12.542969 C 15.804688 -12.09375 15.574219 -10.382812 15.34375 -8.667969 C 15.144531 -7.164062 14.945312 -5.65625 15.019531 -4.957031 C 15.171875 -3.4375 16.3125 -2.621094 18.035156 -2.792969 C 22.175781 -3.214844 28.984375 -6.859375 35.523438 -12.1875 C 35.785156 -12.363281 35.902344 -12.679688 35.871094 -12.976562 C 35.820312 -13.476562 35.382812 -13.835938 34.882812 -13.785156 C 34.707031 -13.765625 34.539062 -13.699219 34.398438 -13.585938 C 28.164062 -8.511719 21.617188 -4.972656 17.851562 -4.589844 C 17.105469 -4.515625 16.863281 -4.667969 16.8125 -5.140625 C 16.761719 -5.640625 16.933594 -6.941406 17.132812 -8.421875 C 17.363281 -10.136719 17.621094 -12.050781 17.515625 -13.074219 C 17.402344 -14.222656 16.53125 -14.839844 15.234375 -14.707031 C 12.414062 -14.417969 7.636719 -11.109375 -0.523438 -3.902344 C -0.871094 -3.617188 -0.992188 -3.804688 -0.820312 -4.097656 C 1 -7.234375 5.195312 -13.332031 9.363281 -17.183594 C 9.570312 -17.378906 9.664062 -17.667969 9.636719 -17.941406 C 9.585938 -18.441406 9.148438 -18.796875 8.648438 -18.746094 C 8.449219 -18.726562 8.257812 -18.632812 8.117188 -18.515625 C 2.042969 -12.832031 -4.226562 -2.390625 -4.390625 -0.8125 C -4.484375 0.00390625 -3.921875 0.601562 -3.148438 0.523438 Z M -3.148438 0.523438 "/></g></g></g><g fill="#ffffff" fill-opacity="1"><g transform="translate(259.437013, 218.658944)"><g><path d="M 35.753906 -13.875 C 35.605469 -13.859375 35.4375 -13.789062 35.292969 -13.699219 C 27.992188 -8.195312 17.703125 -1.121094 11.890625 -0.53125 C 9.023438 -0.238281 6.960938 -2.421875 6.175781 -4.183594 C 14.167969 -6.355469 17.492188 -11.105469 17.613281 -12.882812 C 17.71875 -14.304688 16.519531 -15.191406 14.773438 -15.011719 C 10.910156 -14.617188 6.273438 -10.894531 0.078125 -3.207031 C -1.847656 -0.820312 -4.710938 3.480469 -7.152344 7.203125 C -7.480469 7.71875 -7.703125 7.738281 -7.367188 7.101562 C -5.144531 2.917969 -1.828125 -2.609375 2.082031 -8.753906 C 24.433594 -26.554688 44.621094 -54.71875 44.027344 -60.554688 C 43.894531 -61.875 43.019531 -62.542969 41.621094 -62.398438 C 36.511719 -61.878906 15.113281 -32.484375 0.933594 -10.125 C 0.863281 -10.066406 0.84375 -10.015625 0.824219 -9.960938 C -7.578125 3.292969 -12.359375 12.246094 -12.132812 14.464844 C -12.066406 15.113281 -11.519531 15.5625 -10.871094 15.496094 C -10.394531 15.449219 -9.859375 14.761719 -8.339844 12.367188 L -7.582031 11.179688 C -4.945312 7.105469 -0.9375 0.925781 1.5 -2.09375 C 7.292969 -9.285156 11.664062 -12.882812 14.957031 -13.214844 C 15.582031 -13.28125 15.71875 -13.167969 15.742188 -12.941406 C 15.8125 -12.246094 12.96875 -7.773438 5.28125 -5.804688 C 4.886719 -5.714844 4.628906 -5.535156 4.433594 -5.214844 C 4.191406 -4.863281 4.148438 -4.53125 4.261719 -4.164062 C 4.992188 -1.96875 7.984375 1.679688 12.074219 1.265625 C 18.332031 0.628906 29.046875 -6.738281 36.375 -12.25 C 36.632812 -12.425781 36.777344 -12.742188 36.746094 -13.066406 C 36.695312 -13.566406 36.253906 -13.925781 35.753906 -13.875 Z M 41.804688 -60.605469 C 42.003906 -60.625 42.214844 -60.546875 42.242188 -60.269531 C 42.734375 -55.457031 25.632812 -31.363281 5.324219 -13.796875 C 21.859375 -39.21875 38.214844 -60.238281 41.804688 -60.605469 Z M 41.804688 -60.605469 "/></g></g></g></svg>