<?xml version="1.0" encoding="utf-8"?>
<svg id="svg" version="1.1" width="400" height="471.61773172135867" viewBox="0, 0, 400,471.61773172135867" xmlns="http://www.w3.org/2000/svg">
  <g id="svgg" style="transform-origin: 203.041px 226.536px;">
    <path id="path0" d="M102.313 63.846 C 102.070 64.165,5.277 468.038,5.289 468.682 C 5.296 469.066,9.296 469.082,86.989 469.027 L 168.682 468.969 168.797 417.732 L 168.912 366.494 170.810 366.427 C 172.558 366.366,172.715 366.320,172.807 365.851 C 172.862 365.572,173.590 347.363,174.425 325.389 C 175.260 303.414,177.858 235.901,180.199 175.360 C 182.540 114.819,184.455 64.896,184.455 64.421 L 184.456 63.558 143.494 63.558 C 110.995 63.558,102.487 63.617,102.313 63.846 M217.617 64.579 C 217.617 65.140,218.030 77.031,218.536 91.003 C 219.042 104.976,220.285 139.413,221.298 167.530 C 222.312 195.648,223.502 228.653,223.945 240.875 C 224.387 253.097,225.113 273.201,225.558 285.550 C 226.003 297.899,226.834 320.877,227.404 336.613 C 227.974 352.349,228.440 365.478,228.440 365.789 C 228.440 366.309,228.537 366.360,229.649 366.424 L 230.858 366.494 230.992 404.721 C 231.110 438.512,231.183 444.324,231.621 454.807 C 231.893 461.330,232.117 467.211,232.120 467.876 L 232.124 469.085 313.861 469.085 C 359.457 469.085,395.652 468.997,395.720 468.886 C 395.847 468.681,298.159 65.003,297.758 64.076 L 297.534 63.558 257.575 63.558 L 217.617 63.558 217.617 64.579 M171.675 100.167 C 173.382 100.562,174.003 102.356,172.837 103.522 L 172.272 104.088 136.050 104.080 C 107.939 104.074,99.745 104.010,99.462 103.792 C 98.019 102.685,98.441 100.588,100.189 100.176 C 101.311 99.911,170.536 99.903,171.675 100.167 M293.264 100.167 C 294.971 100.562,295.592 102.356,294.426 103.522 L 293.861 104.088 258.523 104.088 L 223.184 104.088 222.588 103.379 C 221.643 102.256,222.044 100.552,223.320 100.271 C 223.666 100.195,224.053 100.098,224.180 100.056 C 224.753 99.864,292.428 99.973,293.264 100.167 M154.201 391.623 C 156.634 392.777,156.764 396.073,154.445 397.791 L 153.795 398.273 91.117 398.273 L 28.440 398.273 27.601 397.751 C 25.370 396.364,25.525 392.830,27.869 391.653 C 29.064 391.052,152.937 391.023,154.201 391.623 M365.921 391.767 C 368.411 393.463,368.239 396.749,365.596 397.949 C 364.683 398.364,362.655 398.378,304.194 398.383 L 243.736 398.388 242.722 397.870 C 240.105 396.533,239.959 393.193,242.454 391.746 L 243.293 391.260 304.226 391.255 L 365.159 391.249 365.921 391.767 " stroke="none" fill-rule="evenodd" style="fill: rgb(199, 226, 199);"/>
    <path id="path1" d="M184.840 0.154 C 184.755 0.238,184.686 0.963,184.686 1.765 L 184.686 3.224 183.551 3.224 C 181.509 3.224,181.693 0.400,181.693 31.864 C 181.693 53.891,181.753 59.842,181.980 60.069 C 182.139 60.227,182.320 60.999,182.383 61.785 L 182.499 63.212 183.592 63.283 L 184.686 63.353 184.686 65.243 C 184.686 67.068,173.242 364.402,173.118 365.803 L 173.057 366.494 171.175 366.609 C 170.140 366.672,169.236 366.782,169.166 366.853 C 169.095 366.924,169.009 390.525,168.975 419.300 L 168.912 471.618 200.550 471.618 L 232.188 471.618 232.044 470.178 C 231.219 461.935,230.746 437.376,230.744 402.637 C 230.743 375.354,230.679 367.098,230.466 366.885 C 230.314 366.733,229.754 366.609,229.222 366.609 L 228.254 366.609 228.112 364.249 C 228.010 362.552,218.269 92.192,217.293 63.986 C 217.207 61.512,217.253 60.753,217.508 60.416 C 217.782 60.054,217.833 55.668,217.840 31.845 C 217.848 -0.162,218.089 3.224,215.800 3.224 L 214.644 3.224 214.576 1.670 L 214.508 0.115 208.175 0.115 L 201.842 0.115 201.774 1.670 L 201.706 3.224 199.759 3.224 L 197.812 3.224 197.812 1.612 L 197.812 0.000 191.403 0.000 C 187.878 0.000,184.924 0.069,184.840 0.154 M197.539 60.398 C 197.709 60.602,197.810 61.149,197.770 61.642 L 197.697 62.522 192.170 62.522 L 186.644 62.522 186.571 61.640 C 186.528 61.116,186.645 60.537,186.859 60.209 C 187.181 59.718,187.219 56.742,187.219 32.367 L 187.219 5.075 192.113 5.013 L 197.006 4.951 197.121 32.492 C 197.215 54.776,197.294 60.103,197.539 60.398 M212.550 32.557 C 212.550 57.102,212.589 60.079,212.907 60.343 C 213.148 60.544,213.242 60.944,213.195 61.581 L 213.126 62.522 207.542 62.583 L 201.957 62.645 201.957 61.649 C 201.957 61.101,202.110 60.451,202.295 60.205 C 202.588 59.818,202.635 56.092,202.641 32.412 L 202.648 5.066 207.599 5.066 L 212.550 5.066 212.550 32.557 M216.342 63.846 C 216.393 64.004,218.827 130.766,221.751 212.205 C 224.675 293.644,227.133 361.707,227.213 363.456 L 227.358 366.636 226.114 366.565 L 224.870 366.494 224.806 363.328 L 224.742 360.161 213.926 360.161 L 203.109 360.161 203.109 363.385 L 203.109 366.609 200.115 366.609 L 197.121 366.609 197.121 363.385 L 197.121 360.161 185.830 360.161 C 175.560 360.161,174.526 360.127,174.394 359.782 C 174.249 359.404,185.548 64.393,185.728 63.846 C 185.803 63.619,189.070 63.558,201.036 63.558 C 213.004 63.558,216.269 63.619,216.342 63.846 M196.143 419.173 L 196.201 471.162 186.126 471.102 L 176.051 471.042 175.988 419.574 C 175.953 391.267,175.981 367.872,176.050 367.585 L 176.176 367.065 186.131 367.125 L 196.085 367.185 196.143 419.173 M223.547 419.173 L 223.605 471.162 213.530 471.102 L 203.454 471.042 203.395 419.344 C 203.363 390.910,203.386 367.515,203.446 367.355 C 203.533 367.126,205.673 367.078,213.523 367.125 L 223.489 367.185 223.547 419.173 " stroke="none" fill="#060707" fill-rule="evenodd"/>
    <path id="path2" d="M99.802 60.099 C 99.207 60.339,106.955 28.311,49.844 266.627 C 22.931 378.929,0.855 470.993,0.786 471.215 C 0.666 471.598,4.767 471.618,84.695 471.618 L 168.729 471.618 168.878 469.856 C 168.960 468.887,169.027 445.320,169.027 417.486 C 169.027 383.154,169.103 366.840,169.263 366.761 C 169.393 366.696,169.367 366.670,169.206 366.703 C 168.969 366.751,168.890 376.706,168.797 417.866 L 168.682 468.969 86.989 469.027 C 9.296 469.082,5.296 469.066,5.289 468.682 C 5.277 468.036,102.071 64.164,102.314 63.844 C 102.489 63.614,110.869 63.567,143.610 63.614 C 179.225 63.665,188.372 63.589,183.592 63.283 L 182.499 63.212 182.383 61.831 C 182.319 61.071,182.183 60.320,182.081 60.161 C 181.862 59.821,100.642 59.760,99.802 60.099 M186.754 60.344 C 186.615 60.602,186.534 61.198,186.573 61.668 L 186.644 62.522 192.170 62.522 L 197.697 62.522 197.772 61.733 C 197.814 61.300,197.718 60.704,197.561 60.409 L 197.274 59.873 192.140 59.873 C 187.205 59.873,186.995 59.892,186.754 60.344 M202.196 60.319 C 202.065 60.564,201.957 61.187,201.957 61.705 L 201.957 62.645 207.542 62.583 L 213.126 62.522 213.199 61.635 C 213.340 59.921,213.186 59.873,207.457 59.873 C 202.727 59.873,202.420 59.899,202.196 60.319 M217.519 60.390 C 217.284 60.748,217.192 61.424,217.225 62.560 C 217.252 63.524,217.348 64.074,217.455 63.883 C 217.613 63.605,223.407 63.558,257.587 63.558 L 297.534 63.558 297.758 64.076 C 298.159 65.003,395.847 468.681,395.720 468.886 C 395.509 469.228,232.189 469.139,232.026 468.797 C 231.951 468.638,231.942 468.859,232.007 469.286 C 232.072 469.714,232.124 470.413,232.124 470.841 L 232.124 471.618 316.062 471.618 L 400.000 471.618 400.000 470.993 C 400.000 470.130,300.767 60.505,300.489 60.219 C 300.342 60.067,286.149 59.968,259.062 59.929 L 217.860 59.870 217.519 60.390 M185.696 63.888 C 185.626 64.072,185.617 64.409,185.676 64.638 C 185.747 64.911,185.793 64.836,185.811 64.421 L 185.838 63.788 201.022 63.788 L 216.206 63.788 216.299 64.421 C 216.388 65.019,216.392 65.016,216.371 64.364 L 216.350 63.673 201.087 63.614 C 187.935 63.563,185.807 63.601,185.696 63.888 M184.538 68.048 C 184.537 69.188,184.576 69.684,184.624 69.149 C 184.673 68.615,184.673 67.682,184.626 67.077 C 184.578 66.471,184.538 66.908,184.538 68.048 M217.469 68.624 C 217.469 69.827,217.508 70.320,217.556 69.718 C 217.603 69.116,217.603 68.132,217.556 67.530 C 217.508 66.929,217.469 67.421,217.469 68.624 M185.448 69.660 C 185.450 70.420,185.493 70.703,185.544 70.289 C 185.595 69.876,185.594 69.254,185.542 68.908 C 185.489 68.562,185.447 68.900,185.448 69.660 M216.537 70.351 C 216.538 71.111,216.581 71.394,216.632 70.980 C 216.683 70.566,216.682 69.945,216.630 69.599 C 216.577 69.253,216.535 69.591,216.537 70.351 M184.307 74.036 C 184.307 75.176,184.346 75.671,184.394 75.136 C 184.442 74.602,184.443 73.669,184.395 73.064 C 184.348 72.459,184.308 72.896,184.307 74.036 M217.700 75.072 C 217.700 76.275,217.738 76.767,217.786 76.166 C 217.833 75.564,217.833 74.580,217.786 73.978 C 217.738 73.377,217.700 73.869,217.700 75.072 M185.218 75.648 C 185.219 76.408,185.262 76.691,185.314 76.277 C 185.365 75.863,185.364 75.241,185.311 74.895 C 185.259 74.549,185.217 74.888,185.218 75.648 M216.769 76.684 C 216.769 77.507,216.811 77.844,216.862 77.432 C 216.913 77.021,216.913 76.347,216.862 75.936 C 216.811 75.524,216.769 75.861,216.769 76.684 M184.077 80.023 C 184.076 81.163,184.115 81.658,184.164 81.124 C 184.212 80.589,184.213 79.657,184.165 79.051 C 184.117 78.446,184.078 78.883,184.077 80.023 M217.930 81.290 C 217.930 82.493,217.969 82.985,218.016 82.383 C 218.064 81.782,218.064 80.797,218.016 80.196 C 217.969 79.594,217.930 80.086,217.930 81.290 M184.988 81.635 C 184.989 82.395,185.032 82.678,185.083 82.264 C 185.135 81.850,185.134 81.228,185.081 80.882 C 185.029 80.536,184.987 80.875,184.988 81.635 M216.997 83.017 C 216.998 83.777,217.041 84.060,217.093 83.646 C 217.144 83.232,217.143 82.610,217.090 82.264 C 217.038 81.918,216.996 82.257,216.997 83.017 M183.847 86.010 C 183.846 87.150,183.885 87.646,183.933 87.111 C 183.982 86.577,183.982 85.644,183.935 85.039 C 183.887 84.433,183.848 84.870,183.847 86.010 M218.160 87.737 C 218.160 88.941,218.199 89.433,218.246 88.831 C 218.294 88.230,218.294 87.245,218.246 86.644 C 218.199 86.042,218.160 86.534,218.160 87.737 M184.758 87.622 C 184.759 88.382,184.802 88.665,184.853 88.251 C 184.904 87.838,184.903 87.216,184.851 86.870 C 184.798 86.524,184.756 86.862,184.758 87.622 M217.227 89.465 C 217.229 90.225,217.272 90.508,217.323 90.094 C 217.374 89.680,217.373 89.058,217.321 88.712 C 217.268 88.366,217.226 88.705,217.227 89.465 M183.617 91.998 C 183.616 93.138,183.655 93.633,183.703 93.098 C 183.751 92.564,183.752 91.631,183.704 91.026 C 183.657 90.421,183.617 90.858,183.617 91.998 M218.390 94.185 C 218.390 95.389,218.429 95.881,218.477 95.279 C 218.524 94.678,218.524 93.693,218.477 93.092 C 218.429 92.490,218.390 92.982,218.390 94.185 M184.525 93.495 C 184.525 94.191,184.568 94.476,184.621 94.128 C 184.674 93.780,184.674 93.210,184.621 92.861 C 184.568 92.513,184.525 92.798,184.525 93.495 M217.458 95.912 C 217.459 96.672,217.502 96.956,217.553 96.542 C 217.604 96.128,217.603 95.506,217.551 95.160 C 217.498 94.814,217.456 95.153,217.458 95.912 M183.386 97.985 C 183.386 99.125,183.425 99.620,183.473 99.086 C 183.521 98.551,183.522 97.619,183.474 97.013 C 183.427 96.408,183.387 96.845,183.386 97.985 M184.295 99.482 C 184.295 100.178,184.338 100.463,184.391 100.115 C 184.443 99.767,184.443 99.197,184.391 98.849 C 184.338 98.500,184.295 98.785,184.295 99.482 M218.622 100.518 C 218.622 101.785,218.661 102.273,218.708 101.604 C 218.754 100.935,218.754 99.899,218.707 99.301 C 218.659 98.704,218.621 99.252,218.622 100.518 M217.688 102.130 C 217.689 102.890,217.732 103.173,217.783 102.759 C 217.835 102.345,217.834 101.724,217.781 101.378 C 217.729 101.032,217.687 101.370,217.688 102.130 M183.156 103.972 C 183.155 105.112,183.194 105.608,183.243 105.073 C 183.291 104.539,183.291 103.606,183.244 103.001 C 183.196 102.395,183.157 102.832,183.156 103.972 M184.064 105.469 C 184.064 106.166,184.108 106.451,184.160 106.102 C 184.213 105.754,184.213 105.184,184.160 104.836 C 184.108 104.488,184.064 104.773,184.064 105.469 M218.851 106.851 C 218.851 108.054,218.890 108.546,218.937 107.945 C 218.985 107.343,218.985 106.359,218.937 105.757 C 218.890 105.155,218.851 105.648,218.851 106.851 M217.918 108.578 C 217.920 109.338,217.963 109.621,218.014 109.207 C 218.065 108.793,218.064 108.172,218.011 107.825 C 217.959 107.479,217.917 107.818,217.918 108.578 M182.926 109.729 C 182.925 110.869,182.964 111.365,183.012 110.830 C 183.061 110.296,183.061 109.363,183.014 108.758 C 182.966 108.152,182.926 108.590,182.926 109.729 M183.834 111.457 C 183.834 112.153,183.877 112.438,183.930 112.090 C 183.983 111.742,183.983 111.172,183.930 110.823 C 183.877 110.475,183.834 110.760,183.834 111.457 M219.081 113.299 C 219.081 114.502,219.120 114.994,219.168 114.393 C 219.215 113.791,219.215 112.807,219.168 112.205 C 219.120 111.603,219.081 112.096,219.081 113.299 M182.695 115.717 C 182.695 116.857,182.734 117.352,182.782 116.818 C 182.830 116.283,182.831 115.350,182.783 114.745 C 182.736 114.140,182.696 114.577,182.695 115.717 M218.149 115.026 C 218.150 115.786,218.193 116.069,218.244 115.655 C 218.295 115.241,218.294 114.619,218.242 114.273 C 218.189 113.927,218.147 114.266,218.149 115.026 M183.606 117.329 C 183.607 118.089,183.650 118.372,183.702 117.958 C 183.753 117.544,183.752 116.922,183.699 116.576 C 183.647 116.230,183.605 116.569,183.606 117.329 M219.312 119.747 C 219.312 120.950,219.350 121.442,219.398 120.841 C 219.445 120.239,219.445 119.254,219.398 118.653 C 219.350 118.051,219.312 118.543,219.312 119.747 M182.465 121.704 C 182.464 122.844,182.503 123.339,182.552 122.805 C 182.600 122.270,182.601 121.338,182.553 120.732 C 182.505 120.127,182.466 120.564,182.465 121.704 M218.381 121.359 C 218.381 122.182,218.423 122.519,218.474 122.107 C 218.525 121.695,218.525 121.022,218.474 120.610 C 218.423 120.199,218.381 120.535,218.381 121.359 M183.376 123.316 C 183.377 124.076,183.420 124.359,183.471 123.945 C 183.523 123.531,183.522 122.910,183.469 122.564 C 183.417 122.217,183.375 122.556,183.376 123.316 M219.542 125.964 C 219.542 127.168,219.581 127.660,219.628 127.058 C 219.676 126.457,219.676 125.472,219.628 124.870 C 219.581 124.269,219.542 124.761,219.542 125.964 M182.235 127.691 C 182.234 128.831,182.273 129.327,182.321 128.792 C 182.370 128.258,182.370 127.325,182.323 126.720 C 182.275 126.114,182.236 126.552,182.235 127.691 M218.609 127.691 C 218.610 128.451,218.653 128.734,218.705 128.321 C 218.756 127.907,218.755 127.285,218.702 126.939 C 218.650 126.593,218.608 126.931,218.609 127.691 M183.146 129.303 C 183.147 130.063,183.190 130.346,183.241 129.933 C 183.292 129.519,183.291 128.897,183.239 128.551 C 183.186 128.205,183.144 128.543,183.146 129.303 M219.772 132.412 C 219.772 133.615,219.811 134.108,219.858 133.506 C 219.906 132.904,219.906 131.920,219.858 131.318 C 219.811 130.717,219.772 131.209,219.772 132.412 M182.005 133.679 C 182.004 134.819,182.043 135.314,182.091 134.780 C 182.139 134.245,182.140 133.312,182.092 132.707 C 182.045 132.102,182.005 132.539,182.005 133.679 M218.839 134.139 C 218.841 134.899,218.884 135.182,218.935 134.768 C 218.986 134.355,218.985 133.733,218.933 133.387 C 218.880 133.041,218.838 133.379,218.839 134.139 M182.915 135.291 C 182.917 136.051,182.960 136.334,183.011 135.920 C 183.062 135.506,183.061 134.884,183.009 134.538 C 182.956 134.192,182.914 134.531,182.915 135.291 M220.002 138.860 C 220.002 140.063,220.041 140.556,220.089 139.954 C 220.136 139.352,220.136 138.368,220.089 137.766 C 220.041 137.165,220.002 137.657,220.002 138.860 M181.774 139.666 C 181.774 140.806,181.813 141.301,181.861 140.767 C 181.909 140.232,181.910 139.300,181.862 138.694 C 181.815 138.089,181.775 138.526,181.774 139.666 M219.070 140.587 C 219.071 141.347,219.114 141.630,219.165 141.216 C 219.216 140.802,219.215 140.181,219.163 139.835 C 219.110 139.489,219.068 139.827,219.070 140.587 M182.683 141.163 C 182.683 141.860,182.726 142.145,182.779 141.796 C 182.831 141.448,182.831 140.878,182.779 140.530 C 182.726 140.181,182.683 140.466,182.683 141.163 M220.234 145.193 C 220.234 146.459,220.273 146.948,220.320 146.279 C 220.366 145.610,220.366 144.574,220.319 143.976 C 220.271 143.379,220.233 143.926,220.234 145.193 M181.544 145.653 C 181.543 146.793,181.582 147.289,181.631 146.754 C 181.679 146.220,181.679 145.287,181.632 144.682 C 181.584 144.076,181.545 144.514,181.544 145.653 M219.302 146.920 C 219.302 147.743,219.344 148.080,219.395 147.668 C 219.446 147.257,219.446 146.583,219.395 146.172 C 219.344 145.760,219.302 146.097,219.302 146.920 M182.452 147.150 C 182.452 147.847,182.496 148.132,182.548 147.784 C 182.601 147.435,182.601 146.865,182.548 146.517 C 182.496 146.169,182.452 146.454,182.452 147.150 M220.463 151.526 C 220.463 152.729,220.502 153.221,220.549 152.619 C 220.597 152.018,220.597 151.033,220.549 150.432 C 220.502 149.830,220.463 150.322,220.463 151.526 M181.314 151.641 C 181.313 152.781,181.352 153.276,181.400 152.742 C 181.449 152.207,181.449 151.274,181.402 150.669 C 181.354 150.064,181.314 150.501,181.314 151.641 M182.222 153.138 C 182.222 153.834,182.265 154.119,182.318 153.771 C 182.371 153.423,182.371 152.853,182.318 152.504 C 182.265 152.156,182.222 152.441,182.222 153.138 M219.530 153.253 C 219.531 154.013,219.574 154.296,219.626 153.882 C 219.677 153.468,219.676 152.846,219.623 152.500 C 219.571 152.154,219.529 152.493,219.530 153.253 M181.083 157.398 C 181.083 158.538,181.122 159.033,181.170 158.499 C 181.218 157.964,181.219 157.031,181.171 156.426 C 181.124 155.821,181.084 156.258,181.083 157.398 M220.693 157.974 C 220.693 159.177,220.732 159.669,220.780 159.067 C 220.827 158.466,220.827 157.481,220.780 156.880 C 220.732 156.278,220.693 156.770,220.693 157.974 M181.994 159.010 C 181.996 159.770,182.038 160.053,182.090 159.639 C 182.141 159.225,182.140 158.603,182.087 158.257 C 182.035 157.911,181.993 158.250,181.994 159.010 M219.760 159.701 C 219.762 160.461,219.805 160.744,219.856 160.330 C 219.907 159.916,219.906 159.294,219.854 158.948 C 219.801 158.602,219.759 158.941,219.760 159.701 M180.853 163.385 C 180.852 164.525,180.891 165.020,180.940 164.486 C 180.988 163.951,180.989 163.019,180.941 162.413 C 180.893 161.808,180.854 162.245,180.853 163.385 M220.924 164.421 C 220.924 165.625,220.962 166.117,221.010 165.515 C 221.057 164.914,221.057 163.929,221.010 163.328 C 220.962 162.726,220.924 163.218,220.924 164.421 M181.764 164.997 C 181.765 165.757,181.808 166.040,181.859 165.626 C 181.911 165.212,181.910 164.591,181.857 164.245 C 181.805 163.899,181.763 164.237,181.764 164.997 M219.993 166.033 C 219.993 166.857,220.035 167.193,220.086 166.782 C 220.137 166.370,220.137 165.697,220.086 165.285 C 220.035 164.873,219.993 165.210,219.993 166.033 M180.623 169.372 C 180.622 170.512,180.661 171.008,180.709 170.473 C 180.758 169.939,180.758 169.006,180.711 168.401 C 180.663 167.795,180.624 168.233,180.623 169.372 M221.154 170.639 C 221.154 171.842,221.193 172.334,221.240 171.733 C 221.288 171.131,221.288 170.147,221.240 169.545 C 221.193 168.944,221.154 169.436,221.154 170.639 M181.534 170.984 C 181.535 171.744,181.578 172.028,181.629 171.614 C 181.680 171.200,181.679 170.578,181.627 170.232 C 181.574 169.886,181.532 170.225,181.534 170.984 M220.221 172.366 C 220.222 173.126,220.265 173.409,220.317 172.995 C 220.368 172.581,220.367 171.960,220.314 171.614 C 220.262 171.268,220.220 171.606,220.221 172.366 M180.393 175.360 C 180.392 176.500,180.431 176.995,180.479 176.461 C 180.527 175.926,180.528 174.993,180.480 174.388 C 180.433 173.783,180.393 174.220,180.393 175.360 M221.384 177.087 C 221.384 178.290,221.423 178.782,221.470 178.181 C 221.518 177.579,221.518 176.595,221.470 175.993 C 221.423 175.391,221.384 175.884,221.384 177.087 M181.303 176.972 C 181.305 177.732,181.348 178.015,181.399 177.601 C 181.450 177.187,181.449 176.565,181.397 176.219 C 181.344 175.873,181.302 176.212,181.303 176.972 M220.451 178.814 C 220.453 179.574,220.496 179.857,220.547 179.443 C 220.598 179.029,220.597 178.408,220.545 178.062 C 220.492 177.715,220.450 178.054,220.451 178.814 M180.162 181.347 C 180.162 182.487,180.201 182.982,180.249 182.448 C 180.297 181.913,180.298 180.981,180.250 180.375 C 180.203 179.770,180.163 180.207,180.162 181.347 M221.614 183.535 C 221.614 184.738,221.653 185.230,221.701 184.629 C 221.748 184.027,221.748 183.043,221.701 182.441 C 221.653 181.839,221.614 182.332,221.614 183.535 M181.073 182.959 C 181.074 183.719,181.117 184.002,181.169 183.588 C 181.220 183.174,181.219 182.553,181.166 182.207 C 181.114 181.861,181.072 182.199,181.073 182.959 M220.682 185.262 C 220.683 186.022,220.726 186.305,220.777 185.891 C 220.828 185.477,220.827 184.855,220.775 184.509 C 220.722 184.163,220.680 184.502,220.682 185.262 M179.932 187.334 C 179.931 188.474,179.970 188.970,180.019 188.435 C 180.067 187.901,180.067 186.968,180.020 186.363 C 179.972 185.757,179.933 186.195,179.932 187.334 M180.840 188.831 C 180.840 189.528,180.884 189.813,180.936 189.465 C 180.989 189.116,180.989 188.546,180.936 188.198 C 180.884 187.850,180.840 188.135,180.840 188.831 M221.846 189.868 C 221.846 191.134,221.885 191.623,221.932 190.954 C 221.978 190.285,221.978 189.248,221.931 188.651 C 221.883 188.054,221.845 188.601,221.846 189.868 M220.914 191.595 C 220.914 192.418,220.956 192.755,221.007 192.343 C 221.058 191.931,221.058 191.258,221.007 190.846 C 220.956 190.435,220.914 190.771,220.914 191.595 M179.702 193.322 C 179.701 194.462,179.740 194.957,179.788 194.423 C 179.837 193.888,179.837 192.956,179.790 192.350 C 179.742 191.745,179.702 192.182,179.702 193.322 M180.610 194.819 C 180.610 195.515,180.653 195.800,180.706 195.452 C 180.759 195.104,180.759 194.534,180.706 194.185 C 180.653 193.837,180.610 194.122,180.610 194.819 M222.075 196.200 C 222.075 197.404,222.114 197.896,222.161 197.294 C 222.209 196.693,222.209 195.708,222.161 195.107 C 222.114 194.505,222.075 194.997,222.075 196.200 M221.142 197.927 C 221.143 198.687,221.186 198.971,221.238 198.557 C 221.289 198.143,221.288 197.521,221.235 197.175 C 221.183 196.829,221.141 197.168,221.142 197.927 M179.471 199.309 C 179.471 200.449,179.510 200.944,179.558 200.410 C 179.606 199.875,179.607 198.943,179.559 198.337 C 179.512 197.732,179.472 198.169,179.471 199.309 M180.380 200.806 C 180.380 201.503,180.423 201.788,180.476 201.439 C 180.529 201.091,180.529 200.521,180.476 200.173 C 180.423 199.824,180.380 200.109,180.380 200.806 M222.305 202.648 C 222.305 203.851,222.344 204.344,222.391 203.742 C 222.439 203.140,222.439 202.156,222.391 201.554 C 222.344 200.953,222.305 201.445,222.305 202.648 M179.241 205.066 C 179.241 206.206,179.279 206.701,179.328 206.167 C 179.376 205.633,179.377 204.700,179.329 204.094 C 179.281 203.489,179.242 203.926,179.241 205.066 M221.372 204.375 C 221.374 205.135,221.417 205.418,221.468 205.005 C 221.519 204.591,221.518 203.969,221.466 203.623 C 221.413 203.277,221.371 203.615,221.372 204.375 M180.152 206.678 C 180.153 207.438,180.196 207.721,180.247 207.307 C 180.299 206.893,180.298 206.272,180.245 205.926 C 180.193 205.580,180.151 205.918,180.152 206.678 M222.536 209.096 C 222.536 210.299,222.574 210.792,222.622 210.190 C 222.669 209.588,222.669 208.604,222.622 208.002 C 222.574 207.401,222.536 207.893,222.536 209.096 M179.011 211.054 C 179.010 212.193,179.049 212.689,179.097 212.154 C 179.146 211.620,179.146 210.687,179.099 210.082 C 179.051 209.476,179.012 209.914,179.011 211.054 M221.605 210.708 C 221.605 211.531,221.647 211.868,221.698 211.457 C 221.749 211.045,221.749 210.371,221.698 209.960 C 221.647 209.548,221.605 209.885,221.605 210.708 M179.922 212.666 C 179.923 213.425,179.966 213.709,180.017 213.295 C 180.068 212.881,180.067 212.259,180.015 211.913 C 179.962 211.567,179.920 211.906,179.922 212.666 M222.766 215.314 C 222.766 216.517,222.805 217.009,222.852 216.408 C 222.899 215.806,222.899 214.822,222.852 214.220 C 222.805 213.618,222.766 214.111,222.766 215.314 M178.781 217.041 C 178.780 218.181,178.819 218.676,178.867 218.142 C 178.915 217.607,178.916 216.675,178.868 216.069 C 178.821 215.464,178.781 215.901,178.781 217.041 M221.833 217.041 C 221.834 217.801,221.877 218.084,221.929 217.670 C 221.980 217.256,221.979 216.634,221.926 216.288 C 221.874 215.942,221.832 216.281,221.833 217.041 M179.691 218.653 C 179.693 219.413,179.736 219.696,179.787 219.282 C 179.838 218.868,179.837 218.246,179.785 217.900 C 179.732 217.554,179.690 217.893,179.691 218.653 M222.996 221.762 C 222.996 222.965,223.035 223.457,223.082 222.855 C 223.130 222.254,223.130 221.269,223.082 220.668 C 223.035 220.066,222.996 220.558,222.996 221.762 M178.550 223.028 C 178.550 224.168,178.589 224.663,178.637 224.129 C 178.685 223.595,178.686 222.662,178.638 222.056 C 178.591 221.451,178.551 221.888,178.550 223.028 M222.063 223.489 C 222.065 224.249,222.108 224.532,222.159 224.118 C 222.210 223.704,222.209 223.082,222.156 222.736 C 222.104 222.390,222.062 222.729,222.063 223.489 M179.461 224.640 C 179.462 225.400,179.505 225.683,179.557 225.269 C 179.608 224.855,179.607 224.234,179.554 223.888 C 179.502 223.542,179.460 223.880,179.461 224.640 M223.226 228.210 C 223.226 229.413,223.265 229.905,223.313 229.303 C 223.360 228.702,223.360 227.717,223.313 227.116 C 223.265 226.514,223.226 227.006,223.226 228.210 M178.320 229.016 C 178.319 230.155,178.358 230.651,178.407 230.116 C 178.455 229.582,178.455 228.649,178.408 228.044 C 178.360 227.438,178.321 227.876,178.320 229.016 M222.294 229.937 C 222.295 230.697,222.338 230.980,222.389 230.566 C 222.440 230.152,222.439 229.530,222.387 229.184 C 222.334 228.838,222.292 229.177,222.294 229.937 M179.231 230.628 C 179.232 231.387,179.275 231.671,179.326 231.257 C 179.378 230.843,179.377 230.221,179.324 229.875 C 179.271 229.529,179.230 229.868,179.231 230.628 M223.458 234.542 C 223.458 235.809,223.497 236.298,223.544 235.628 C 223.590 234.959,223.590 233.923,223.543 233.326 C 223.495 232.728,223.457 233.276,223.458 234.542 M178.090 235.003 C 178.089 236.143,178.128 236.638,178.176 236.104 C 178.225 235.569,178.225 234.637,178.178 234.031 C 178.130 233.426,178.091 233.863,178.090 235.003 M222.526 236.269 C 222.526 237.093,222.568 237.429,222.619 237.018 C 222.670 236.606,222.670 235.933,222.619 235.521 C 222.568 235.109,222.526 235.446,222.526 236.269 M178.998 236.500 C 178.998 237.196,179.041 237.481,179.094 237.133 C 179.147 236.785,179.147 236.215,179.094 235.866 C 179.041 235.518,178.998 235.803,178.998 236.500 M223.687 240.875 C 223.687 242.078,223.726 242.571,223.773 241.969 C 223.821 241.367,223.821 240.383,223.773 239.781 C 223.726 239.180,223.687 239.672,223.687 240.875 M177.860 240.990 C 177.859 242.130,177.898 242.625,177.946 242.091 C 177.994 241.557,177.995 240.624,177.947 240.018 C 177.900 239.413,177.860 239.850,177.860 240.990 M178.768 242.487 C 178.768 243.184,178.811 243.469,178.864 243.120 C 178.917 242.772,178.917 242.202,178.864 241.854 C 178.811 241.505,178.768 241.790,178.768 242.487 M222.754 242.602 C 222.755 243.362,222.798 243.645,222.850 243.231 C 222.901 242.817,222.900 242.196,222.847 241.850 C 222.795 241.504,222.753 241.842,222.754 242.602 M177.628 246.862 C 177.628 247.939,177.668 248.379,177.716 247.841 C 177.765 247.303,177.765 246.422,177.716 245.884 C 177.668 245.345,177.628 245.786,177.628 246.862 M223.917 247.323 C 223.917 248.526,223.956 249.018,224.003 248.417 C 224.051 247.815,224.051 246.831,224.003 246.229 C 223.956 245.628,223.917 246.120,223.917 247.323 M178.538 248.474 C 178.538 249.171,178.581 249.456,178.634 249.108 C 178.686 248.759,178.686 248.189,178.634 247.841 C 178.581 247.493,178.538 247.778,178.538 248.474 M222.984 249.050 C 222.986 249.810,223.029 250.093,223.080 249.679 C 223.131 249.265,223.130 248.644,223.078 248.298 C 223.025 247.952,222.983 248.290,222.984 249.050 M177.399 252.735 C 177.398 253.874,177.437 254.370,177.485 253.835 C 177.534 253.301,177.534 252.368,177.487 251.763 C 177.439 251.157,177.400 251.595,177.399 252.735 M224.147 253.771 C 224.147 254.974,224.186 255.466,224.234 254.865 C 224.281 254.263,224.281 253.279,224.234 252.677 C 224.186 252.075,224.147 252.568,224.147 253.771 M178.310 254.347 C 178.311 255.107,178.354 255.390,178.405 254.976 C 178.456 254.562,178.455 253.940,178.403 253.594 C 178.350 253.248,178.308 253.587,178.310 254.347 M223.217 255.383 C 223.217 256.206,223.259 256.543,223.310 256.131 C 223.361 255.720,223.361 255.046,223.310 254.634 C 223.259 254.223,223.217 254.560,223.217 255.383 M177.169 258.722 C 177.168 259.862,177.207 260.357,177.255 259.823 C 177.304 259.288,177.304 258.356,177.256 257.750 C 177.209 257.145,177.169 257.582,177.169 258.722 M224.378 259.988 C 224.378 261.192,224.417 261.684,224.464 261.082 C 224.511 260.481,224.511 259.496,224.464 258.895 C 224.417 258.293,224.378 258.785,224.378 259.988 M178.079 260.334 C 178.081 261.094,178.124 261.377,178.175 260.963 C 178.226 260.549,178.225 259.927,178.173 259.581 C 178.120 259.235,178.078 259.574,178.079 260.334 M223.445 261.716 C 223.446 262.476,223.489 262.759,223.541 262.345 C 223.592 261.931,223.591 261.309,223.538 260.963 C 223.486 260.617,223.444 260.956,223.445 261.716 M176.938 264.709 C 176.938 265.849,176.977 266.345,177.025 265.810 C 177.073 265.276,177.074 264.343,177.026 263.738 C 176.979 263.132,176.939 263.569,176.938 264.709 M224.608 266.436 C 224.608 267.640,224.647 268.132,224.694 267.530 C 224.742 266.929,224.742 265.944,224.694 265.343 C 224.647 264.741,224.608 265.233,224.608 266.436 M177.849 266.321 C 177.850 267.081,177.893 267.364,177.945 266.950 C 177.996 266.536,177.995 265.915,177.942 265.569 C 177.890 265.223,177.848 265.561,177.849 266.321 M223.675 268.164 C 223.677 268.923,223.720 269.207,223.771 268.793 C 223.822 268.379,223.821 267.757,223.768 267.411 C 223.716 267.065,223.674 267.404,223.675 268.164 M176.708 270.697 C 176.707 271.836,176.746 272.332,176.795 271.797 C 176.843 271.263,176.844 270.330,176.796 269.725 C 176.748 269.119,176.709 269.557,176.708 270.697 M224.838 272.884 C 224.838 274.088,224.877 274.580,224.925 273.978 C 224.972 273.377,224.972 272.392,224.925 271.790 C 224.877 271.189,224.838 271.681,224.838 272.884 M177.619 272.309 C 177.620 273.069,177.663 273.352,177.714 272.938 C 177.766 272.524,177.765 271.902,177.712 271.556 C 177.659 271.210,177.618 271.549,177.619 272.309 M223.906 274.611 C 223.907 275.371,223.950 275.654,224.001 275.241 C 224.052 274.827,224.051 274.205,223.999 273.859 C 223.946 273.513,223.904 273.851,223.906 274.611 M176.478 276.684 C 176.477 277.824,176.516 278.319,176.564 277.785 C 176.613 277.250,176.613 276.318,176.566 275.712 C 176.518 275.107,176.479 275.544,176.478 276.684 M177.389 278.296 C 177.390 279.056,177.433 279.339,177.484 278.925 C 177.535 278.511,177.534 277.889,177.482 277.543 C 177.429 277.197,177.387 277.536,177.389 278.296 M225.069 279.332 C 225.069 280.535,225.107 281.028,225.155 280.426 C 225.202 279.824,225.202 278.840,225.155 278.238 C 225.107 277.637,225.069 278.129,225.069 279.332 M224.138 280.944 C 224.138 281.767,224.180 282.104,224.231 281.693 C 224.282 281.281,224.282 280.607,224.231 280.196 C 224.180 279.784,224.138 280.121,224.138 280.944 M176.248 282.671 C 176.247 283.811,176.286 284.307,176.334 283.772 C 176.382 283.238,176.383 282.305,176.335 281.700 C 176.288 281.094,176.248 281.531,176.248 282.671 M177.156 284.168 C 177.156 284.865,177.199 285.150,177.252 284.801 C 177.305 284.453,177.305 283.883,177.252 283.535 C 177.199 283.187,177.156 283.472,177.156 284.168 M225.299 285.550 C 225.299 286.753,225.338 287.245,225.385 286.644 C 225.433 286.042,225.433 285.058,225.385 284.456 C 225.338 283.854,225.299 284.347,225.299 285.550 M224.366 287.277 C 224.367 288.037,224.410 288.320,224.462 287.906 C 224.513 287.492,224.512 286.870,224.459 286.524 C 224.407 286.178,224.365 286.517,224.366 287.277 M176.017 288.659 C 176.017 289.799,176.055 290.294,176.104 289.759 C 176.152 289.225,176.153 288.292,176.105 287.687 C 176.057 287.081,176.018 287.519,176.017 288.659 M176.926 290.155 C 176.926 290.852,176.969 291.137,177.022 290.789 C 177.074 290.440,177.074 289.870,177.022 289.522 C 176.969 289.174,176.926 289.459,176.926 290.155 M225.529 291.998 C 225.529 293.201,225.568 293.693,225.615 293.092 C 225.663 292.490,225.663 291.505,225.615 290.904 C 225.568 290.302,225.529 290.794,225.529 291.998 M175.787 294.416 C 175.786 295.556,175.825 296.051,175.874 295.516 C 175.922 294.982,175.922 294.049,175.875 293.444 C 175.827 292.838,175.788 293.276,175.787 294.416 M224.596 293.725 C 224.598 294.485,224.641 294.768,224.692 294.354 C 224.743 293.940,224.742 293.318,224.690 292.972 C 224.637 292.626,224.595 292.965,224.596 293.725 M176.695 296.143 C 176.695 296.839,176.739 297.124,176.791 296.776 C 176.844 296.428,176.844 295.858,176.791 295.509 C 176.739 295.161,176.695 295.446,176.695 296.143 M225.759 298.446 C 225.759 299.649,225.798 300.141,225.846 299.539 C 225.893 298.938,225.893 297.953,225.846 297.352 C 225.798 296.750,225.759 297.242,225.759 298.446 M175.557 300.403 C 175.556 301.543,175.595 302.038,175.643 301.504 C 175.692 300.969,175.692 300.037,175.645 299.431 C 175.597 298.826,175.557 299.263,175.557 300.403 M224.829 300.058 C 224.829 300.881,224.871 301.218,224.922 300.806 C 224.973 300.394,224.973 299.721,224.922 299.309 C 224.871 298.898,224.829 299.234,224.829 300.058 M176.467 302.015 C 176.469 302.775,176.512 303.058,176.563 302.644 C 176.614 302.230,176.613 301.608,176.561 301.262 C 176.508 300.916,176.466 301.255,176.467 302.015 M225.991 304.778 C 225.991 306.045,226.030 306.534,226.077 305.864 C 226.123 305.195,226.123 304.159,226.076 303.562 C 226.028 302.964,225.990 303.512,225.991 304.778 M175.326 306.390 C 175.326 307.530,175.365 308.026,175.413 307.491 C 175.461 306.957,175.462 306.024,175.414 305.419 C 175.367 304.813,175.327 305.250,175.326 306.390 M225.057 306.390 C 225.058 307.150,225.101 307.433,225.153 307.019 C 225.204 306.606,225.203 305.984,225.150 305.638 C 225.098 305.292,225.056 305.630,225.057 306.390 M176.237 308.002 C 176.238 308.762,176.281 309.045,176.333 308.631 C 176.384 308.218,176.383 307.596,176.330 307.250 C 176.278 306.904,176.236 307.242,176.237 308.002 M226.220 311.111 C 226.220 312.314,226.259 312.807,226.306 312.205 C 226.354 311.603,226.354 310.619,226.306 310.017 C 226.259 309.416,226.220 309.908,226.220 311.111 M175.096 312.378 C 175.095 313.518,175.134 314.013,175.183 313.478 C 175.231 312.944,175.232 312.011,175.184 311.406 C 175.136 310.800,175.097 311.238,175.096 312.378 M225.287 312.838 C 225.289 313.598,225.332 313.881,225.383 313.467 C 225.434 313.053,225.433 312.432,225.380 312.086 C 225.328 311.740,225.286 312.078,225.287 312.838 M176.007 313.990 C 176.008 314.750,176.051 315.033,176.102 314.619 C 176.154 314.205,176.153 313.583,176.100 313.237 C 176.048 312.891,176.006 313.230,176.007 313.990 M226.450 317.559 C 226.450 318.762,226.489 319.254,226.537 318.653 C 226.584 318.051,226.584 317.067,226.537 316.465 C 226.489 315.864,226.450 316.356,226.450 317.559 M174.866 318.365 C 174.865 319.505,174.904 320.000,174.952 319.466 C 175.001 318.931,175.001 317.999,174.954 317.393 C 174.906 316.788,174.867 317.225,174.866 318.365 M225.518 319.286 C 225.519 320.046,225.562 320.329,225.613 319.915 C 225.664 319.501,225.663 318.880,225.611 318.534 C 225.558 318.188,225.516 318.526,225.518 319.286 M175.777 319.977 C 175.778 320.737,175.821 321.020,175.872 320.606 C 175.923 320.192,175.922 319.570,175.870 319.224 C 175.817 318.878,175.775 319.217,175.777 319.977 M226.681 324.007 C 226.681 325.210,226.719 325.702,226.767 325.101 C 226.814 324.499,226.814 323.515,226.767 322.913 C 226.719 322.311,226.681 322.804,226.681 324.007 M174.636 324.352 C 174.635 325.492,174.674 325.988,174.722 325.453 C 174.770 324.919,174.771 323.986,174.723 323.381 C 174.676 322.775,174.636 323.212,174.636 324.352 M225.750 325.619 C 225.750 326.442,225.792 326.779,225.843 326.367 C 225.894 325.956,225.894 325.282,225.843 324.870 C 225.792 324.459,225.750 324.796,225.750 325.619 M175.544 325.849 C 175.544 326.546,175.587 326.831,175.640 326.482 C 175.693 326.134,175.693 325.564,175.640 325.216 C 175.587 324.868,175.544 325.153,175.544 325.849 M226.911 330.225 C 226.911 331.428,226.950 331.920,226.997 331.318 C 227.045 330.717,227.045 329.732,226.997 329.131 C 226.950 328.529,226.911 329.021,226.911 330.225 M174.405 330.340 C 174.405 331.480,174.444 331.975,174.492 331.440 C 174.540 330.906,174.541 329.973,174.493 329.368 C 174.446 328.762,174.406 329.200,174.405 330.340 M175.314 331.836 C 175.314 332.533,175.357 332.818,175.410 332.470 C 175.462 332.121,175.462 331.552,175.410 331.203 C 175.357 330.855,175.314 331.140,175.314 331.836 M225.978 331.952 C 225.979 332.712,226.022 332.995,226.074 332.581 C 226.125 332.167,226.124 331.545,226.071 331.199 C 226.019 330.853,225.977 331.192,225.978 331.952 M174.175 336.327 C 174.174 337.467,174.213 337.962,174.262 337.428 C 174.310 336.893,174.310 335.961,174.263 335.355 C 174.215 334.750,174.176 335.187,174.175 336.327 M227.141 336.672 C 227.141 337.876,227.180 338.368,227.227 337.766 C 227.275 337.165,227.275 336.180,227.227 335.579 C 227.180 334.977,227.141 335.469,227.141 336.672 M175.083 337.824 C 175.083 338.520,175.127 338.805,175.179 338.457 C 175.232 338.109,175.232 337.539,175.179 337.191 C 175.127 336.842,175.083 337.127,175.083 337.824 M226.208 338.400 C 226.210 339.159,226.253 339.443,226.304 339.029 C 226.355 338.615,226.354 337.993,226.302 337.647 C 226.249 337.301,226.207 337.640,226.208 338.400 M173.945 342.084 C 173.944 343.224,173.983 343.719,174.031 343.185 C 174.080 342.650,174.080 341.718,174.033 341.112 C 173.985 340.507,173.945 340.944,173.945 342.084 M227.371 343.120 C 227.371 344.324,227.410 344.816,227.458 344.214 C 227.505 343.613,227.505 342.628,227.458 342.026 C 227.410 341.425,227.371 341.917,227.371 343.120 M174.853 343.811 C 174.853 344.508,174.896 344.793,174.949 344.444 C 175.002 344.096,175.002 343.526,174.949 343.178 C 174.896 342.830,174.853 343.115,174.853 343.811 M226.441 344.732 C 226.441 345.556,226.483 345.892,226.534 345.481 C 226.585 345.069,226.585 344.396,226.534 343.984 C 226.483 343.572,226.441 343.909,226.441 344.732 M173.714 348.071 C 173.714 349.211,173.753 349.707,173.801 349.172 C 173.849 348.638,173.850 347.705,173.802 347.100 C 173.755 346.494,173.715 346.931,173.714 348.071 M227.603 349.453 C 227.603 350.720,227.642 351.208,227.689 350.539 C 227.735 349.870,227.735 348.834,227.688 348.236 C 227.640 347.639,227.602 348.187,227.603 349.453 M174.625 349.683 C 174.626 350.443,174.669 350.726,174.721 350.313 C 174.772 349.899,174.771 349.277,174.718 348.931 C 174.666 348.585,174.624 348.923,174.625 349.683 M226.669 351.065 C 226.670 351.825,226.713 352.108,226.764 351.694 C 226.816 351.280,226.815 350.659,226.762 350.313 C 226.710 349.966,226.668 350.305,226.669 351.065 M173.484 354.059 C 173.483 355.199,173.522 355.694,173.571 355.160 C 173.619 354.625,173.620 353.692,173.572 353.087 C 173.524 352.482,173.485 352.919,173.484 354.059 M227.832 355.786 C 227.832 356.989,227.871 357.481,227.918 356.880 C 227.966 356.278,227.966 355.294,227.918 354.692 C 227.871 354.090,227.832 354.583,227.832 355.786 M174.395 355.671 C 174.396 356.431,174.439 356.714,174.490 356.300 C 174.542 355.886,174.541 355.264,174.488 354.918 C 174.436 354.572,174.394 354.911,174.395 355.671 M226.899 357.513 C 226.901 358.273,226.944 358.556,226.995 358.142 C 227.046 357.728,227.045 357.106,226.992 356.760 C 226.940 356.414,226.898 356.753,226.899 357.513 M173.254 360.046 C 173.253 361.186,173.292 361.681,173.340 361.147 C 173.389 360.612,173.389 359.680,173.342 359.074 C 173.294 358.469,173.255 358.906,173.254 360.046 M180.007 360.103 C 183.070 360.140,188.147 360.140,191.291 360.103 C 194.434 360.067,191.929 360.038,185.723 360.038 C 179.516 360.038,176.944 360.067,180.007 360.103 M208.463 360.103 C 211.471 360.140,216.393 360.140,219.401 360.103 C 222.409 360.067,219.948 360.037,213.932 360.037 C 207.916 360.037,205.455 360.067,208.463 360.103 M228.062 362.234 C 228.062 363.437,228.101 363.929,228.149 363.328 C 228.196 362.726,228.196 361.742,228.149 361.140 C 228.101 360.538,228.062 361.031,228.062 362.234 M224.845 363.500 C 224.845 365.147,224.882 365.790,224.926 364.930 C 224.971 364.070,224.970 362.723,224.926 361.936 C 224.881 361.150,224.844 361.854,224.845 363.500 M227.130 363.961 C 227.131 364.721,227.174 365.004,227.225 364.590 C 227.276 364.176,227.275 363.554,227.223 363.208 C 227.170 362.862,227.128 363.201,227.130 363.961 M172.938 365.274 C 172.877 365.996,172.911 366.503,173.013 366.400 C 173.116 366.297,173.166 365.706,173.125 365.087 L 173.050 363.961 172.938 365.274 M181.059 367.242 C 183.814 367.279,188.322 367.279,191.077 367.242 C 193.831 367.205,191.577 367.175,186.068 367.175 C 180.558 367.175,178.305 367.205,181.059 367.242 M203.493 367.223 C 203.279 367.436,203.298 470.875,203.512 471.006 C 203.607 471.065,203.658 447.756,203.626 419.209 L 203.567 367.305 213.528 367.242 L 223.489 367.180 213.567 367.125 C 208.111 367.094,203.577 367.139,203.493 367.223 M175.992 419.157 C 175.961 447.616,176.013 470.948,176.108 471.006 C 176.264 471.103,176.264 435.807,176.107 386.068 C 176.074 375.809,176.023 390.699,175.992 419.157 M230.827 438.572 C 230.827 439.839,230.866 440.328,230.913 439.658 C 230.959 438.989,230.959 437.953,230.912 437.356 C 230.864 436.758,230.826 437.306,230.827 438.572 M231.056 445.135 C 231.056 446.339,231.095 446.831,231.142 446.229 C 231.190 445.628,231.190 444.643,231.142 444.041 C 231.095 443.440,231.056 443.932,231.056 445.135 M231.286 451.583 C 231.286 452.786,231.325 453.279,231.372 452.677 C 231.420 452.075,231.420 451.091,231.372 450.489 C 231.325 449.888,231.286 450.380,231.286 451.583 M231.517 458.031 C 231.517 459.234,231.555 459.727,231.603 459.125 C 231.650 458.523,231.650 457.539,231.603 456.937 C 231.555 456.336,231.517 456.828,231.517 458.031 M231.747 464.249 C 231.747 465.452,231.786 465.944,231.833 465.343 C 231.880 464.741,231.880 463.756,231.833 463.155 C 231.786 462.553,231.747 463.045,231.747 464.249 " stroke="none" fill="#9c3404" fill-rule="evenodd"/>
    <path id="path3" d="M184.525 64.940 C 184.525 65.636,184.568 65.921,184.621 65.573 C 184.674 65.225,184.674 64.655,184.621 64.306 C 184.568 63.958,184.525 64.243,184.525 64.940 M185.747 64.997 C 185.678 65.662,183.131 131.128,180.086 210.478 C 177.042 289.827,174.485 355.914,174.406 357.338 L 174.261 359.927 185.634 359.986 L 197.006 360.046 197.121 363.270 L 197.237 366.494 199.982 366.559 C 203.310 366.638,203.101 366.878,203.105 362.982 L 203.109 359.931 213.905 359.931 L 224.702 359.931 224.840 360.449 C 224.917 360.734,224.981 362.242,224.982 363.801 L 224.986 366.634 226.079 366.564 L 227.173 366.494 227.115 364.767 C 226.334 341.600,216.415 66.234,216.326 65.227 L 216.198 63.788 201.035 63.788 L 185.871 63.788 185.747 64.997 M217.460 65.170 C 217.460 65.993,217.502 66.330,217.553 65.918 C 217.604 65.507,217.604 64.833,217.553 64.421 C 217.502 64.010,217.460 64.347,217.460 65.170 M184.307 70.121 C 184.307 71.261,184.346 71.756,184.394 71.222 C 184.442 70.687,184.443 69.755,184.395 69.149 C 184.348 68.544,184.308 68.981,184.307 70.121 M217.701 70.812 C 217.701 72.078,217.740 72.567,217.787 71.898 C 217.833 71.229,217.833 70.192,217.786 69.595 C 217.738 68.998,217.700 69.545,217.701 70.812 M184.077 76.108 C 184.076 77.248,184.115 77.743,184.164 77.209 C 184.212 76.675,184.213 75.742,184.165 75.136 C 184.117 74.531,184.078 74.968,184.077 76.108 M217.930 77.145 C 217.930 78.348,217.969 78.840,218.016 78.238 C 218.064 77.637,218.064 76.652,218.016 76.051 C 217.969 75.449,217.930 75.941,217.930 77.145 M183.847 82.096 C 183.846 83.235,183.885 83.731,183.933 83.196 C 183.982 82.662,183.982 81.729,183.935 81.124 C 183.887 80.518,183.848 80.956,183.847 82.096 M218.161 83.477 C 218.162 84.744,218.201 85.233,218.247 84.563 C 218.294 83.894,218.293 82.858,218.246 82.261 C 218.199 81.663,218.161 82.211,218.161 83.477 M183.617 88.083 C 183.616 89.223,183.655 89.718,183.703 89.184 C 183.751 88.649,183.752 87.717,183.704 87.111 C 183.657 86.506,183.617 86.943,183.617 88.083 M218.392 89.925 C 218.392 91.192,218.431 91.680,218.477 91.011 C 218.524 90.342,218.524 89.306,218.476 88.708 C 218.429 88.111,218.391 88.659,218.392 89.925 M183.388 93.955 C 183.388 95.158,183.426 95.651,183.474 95.049 C 183.521 94.447,183.521 93.463,183.474 92.861 C 183.426 92.260,183.388 92.752,183.388 93.955 M218.621 96.258 C 218.621 97.461,218.660 97.953,218.707 97.352 C 218.754 96.750,218.754 95.766,218.707 95.164 C 218.660 94.562,218.621 95.055,218.621 96.258 M183.157 99.942 C 183.157 101.146,183.196 101.638,183.244 101.036 C 183.291 100.435,183.291 99.450,183.244 98.849 C 183.196 98.247,183.157 98.739,183.157 99.942 M218.851 102.706 C 218.851 103.909,218.890 104.401,218.937 103.800 C 218.985 103.198,218.985 102.214,218.937 101.612 C 218.890 101.010,218.851 101.503,218.851 102.706 M182.926 105.815 C 182.925 106.955,182.964 107.450,183.012 106.915 C 183.061 106.381,183.061 105.448,183.014 104.843 C 182.966 104.237,182.926 104.675,182.926 105.815 M219.081 109.154 C 219.081 110.357,219.120 110.849,219.168 110.248 C 219.215 109.646,219.215 108.661,219.168 108.060 C 219.120 107.458,219.081 107.950,219.081 109.154 M182.695 111.802 C 182.695 112.942,182.734 113.437,182.782 112.903 C 182.830 112.368,182.831 111.436,182.783 110.830 C 182.736 110.225,182.696 110.662,182.695 111.802 M219.313 115.486 C 219.313 116.753,219.352 117.242,219.399 116.573 C 219.445 115.903,219.445 114.867,219.398 114.270 C 219.350 113.672,219.312 114.220,219.313 115.486 M182.465 117.789 C 182.464 118.929,182.503 119.425,182.552 118.890 C 182.600 118.356,182.601 117.423,182.553 116.818 C 182.505 116.212,182.466 116.649,182.465 117.789 M219.542 121.819 C 219.542 123.022,219.581 123.515,219.628 122.913 C 219.676 122.311,219.676 121.327,219.628 120.725 C 219.581 120.124,219.542 120.616,219.542 121.819 M182.235 123.777 C 182.234 124.917,182.273 125.412,182.321 124.877 C 182.370 124.343,182.370 123.410,182.323 122.805 C 182.275 122.199,182.236 122.637,182.235 123.777 M219.773 128.152 C 219.774 129.419,219.812 129.907,219.859 129.238 C 219.906 128.569,219.905 127.533,219.858 126.935 C 219.811 126.338,219.773 126.885,219.773 128.152 M182.005 129.764 C 182.004 130.904,182.043 131.399,182.091 130.865 C 182.139 130.330,182.140 129.398,182.092 128.792 C 182.045 128.187,182.005 128.624,182.005 129.764 M220.004 134.600 C 220.004 135.866,220.043 136.355,220.089 135.686 C 220.136 135.017,220.136 133.981,220.088 133.383 C 220.041 132.786,220.003 133.333,220.004 134.600 M181.774 135.751 C 181.774 136.891,181.813 137.387,181.861 136.852 C 181.909 136.318,181.910 135.385,181.862 134.780 C 181.815 134.174,181.775 134.611,181.774 135.751 M220.233 140.933 C 220.233 142.136,220.272 142.628,220.319 142.026 C 220.366 141.425,220.366 140.440,220.319 139.839 C 220.272 139.237,220.233 139.729,220.233 140.933 M181.545 141.623 C 181.545 142.827,181.584 143.319,181.632 142.717 C 181.679 142.116,181.679 141.131,181.632 140.530 C 181.584 139.928,181.545 140.420,181.545 141.623 M220.463 147.381 C 220.463 148.584,220.502 149.076,220.549 148.474 C 220.597 147.873,220.597 146.888,220.549 146.287 C 220.502 145.685,220.463 146.177,220.463 147.381 M181.315 147.611 C 181.315 148.814,181.354 149.306,181.401 148.705 C 181.449 148.103,181.449 147.119,181.401 146.517 C 181.354 145.915,181.315 146.408,181.315 147.611 M181.083 153.483 C 181.083 154.623,181.122 155.118,181.170 154.584 C 181.218 154.049,181.219 153.117,181.171 152.511 C 181.124 151.906,181.084 152.343,181.083 153.483 M220.694 153.713 C 220.695 154.980,220.734 155.469,220.780 154.799 C 220.827 154.130,220.826 153.094,220.779 152.497 C 220.732 151.899,220.694 152.447,220.694 153.713 M180.853 159.470 C 180.852 160.610,180.891 161.106,180.940 160.571 C 180.988 160.037,180.989 159.104,180.941 158.499 C 180.893 157.893,180.854 158.330,180.853 159.470 M220.925 160.161 C 220.925 161.428,220.964 161.917,221.011 161.247 C 221.057 160.578,221.057 159.542,221.009 158.944 C 220.962 158.347,220.924 158.895,220.925 160.161 M180.623 165.458 C 180.622 166.598,180.661 167.093,180.709 166.558 C 180.758 166.024,180.758 165.091,180.711 164.486 C 180.663 163.881,180.624 164.318,180.623 165.458 M221.154 166.494 C 221.154 167.697,221.193 168.189,221.240 167.588 C 221.288 166.986,221.288 166.002,221.240 165.400 C 221.193 164.799,221.154 165.291,221.154 166.494 M180.393 171.445 C 180.392 172.585,180.431 173.080,180.479 172.546 C 180.527 172.011,180.528 171.079,180.480 170.473 C 180.433 169.868,180.393 170.305,180.393 171.445 M221.385 172.827 C 221.386 174.093,221.424 174.582,221.471 173.913 C 221.518 173.244,221.517 172.207,221.470 171.610 C 221.423 171.013,221.385 171.560,221.385 172.827 M180.162 177.432 C 180.162 178.572,180.201 179.068,180.249 178.533 C 180.297 177.999,180.298 177.066,180.250 176.461 C 180.203 175.855,180.163 176.292,180.162 177.432 M221.615 179.275 C 221.616 180.541,221.655 181.030,221.701 180.361 C 221.748 179.692,221.748 178.655,221.700 178.058 C 221.653 177.461,221.615 178.008,221.615 179.275 M179.932 183.420 C 179.931 184.560,179.970 185.055,180.019 184.520 C 180.067 183.986,180.067 183.053,180.020 182.448 C 179.972 181.843,179.933 182.280,179.932 183.420 M221.845 185.607 C 221.845 186.811,221.883 187.303,221.931 186.701 C 221.978 186.100,221.978 185.115,221.931 184.514 C 221.883 183.912,221.845 184.404,221.845 185.607 M179.703 189.292 C 179.703 190.495,179.742 190.987,179.789 190.386 C 179.837 189.784,179.837 188.800,179.789 188.198 C 179.742 187.596,179.703 188.089,179.703 189.292 M222.075 192.055 C 222.075 193.258,222.114 193.751,222.161 193.149 C 222.209 192.547,222.209 191.563,222.161 190.961 C 222.114 190.360,222.075 190.852,222.075 192.055 M179.473 195.279 C 179.473 196.482,179.512 196.975,179.559 196.373 C 179.606 195.771,179.606 194.787,179.559 194.185 C 179.512 193.584,179.473 194.076,179.473 195.279 M222.306 198.388 C 222.307 199.655,222.346 200.143,222.392 199.474 C 222.439 198.805,222.438 197.769,222.391 197.171 C 222.344 196.574,222.306 197.121,222.306 198.388 M179.241 201.151 C 179.241 202.291,179.279 202.787,179.328 202.252 C 179.376 201.718,179.377 200.785,179.329 200.180 C 179.281 199.574,179.242 200.012,179.241 201.151 M222.537 204.836 C 222.537 206.102,222.576 206.591,222.623 205.922 C 222.669 205.253,222.669 204.217,222.621 203.619 C 222.574 203.022,222.536 203.569,222.537 204.836 M179.011 207.139 C 179.010 208.279,179.049 208.774,179.097 208.240 C 179.146 207.705,179.146 206.772,179.099 206.167 C 179.051 205.562,179.012 205.999,179.011 207.139 M222.766 211.169 C 222.766 212.372,222.805 212.864,222.852 212.263 C 222.899 211.661,222.899 210.676,222.852 210.075 C 222.805 209.473,222.766 209.965,222.766 211.169 M178.781 213.126 C 178.780 214.266,178.819 214.761,178.867 214.227 C 178.915 213.692,178.916 212.760,178.868 212.154 C 178.821 211.549,178.781 211.986,178.781 213.126 M222.997 217.501 C 222.998 218.768,223.036 219.257,223.083 218.588 C 223.130 217.918,223.129 216.882,223.082 216.285 C 223.035 215.687,222.997 216.235,222.997 217.501 M178.550 219.113 C 178.550 220.253,178.589 220.749,178.637 220.214 C 178.685 219.680,178.686 218.747,178.638 218.142 C 178.591 217.536,178.551 217.974,178.550 219.113 M223.226 224.064 C 223.226 225.268,223.265 225.760,223.313 225.158 C 223.360 224.557,223.360 223.572,223.313 222.971 C 223.265 222.369,223.226 222.861,223.226 224.064 M178.320 225.101 C 178.319 226.241,178.358 226.736,178.407 226.202 C 178.455 225.667,178.455 224.734,178.408 224.129 C 178.360 223.524,178.321 223.961,178.320 225.101 M223.457 230.282 C 223.457 231.485,223.495 231.978,223.543 231.376 C 223.590 230.774,223.590 229.790,223.543 229.188 C 223.495 228.587,223.457 229.079,223.457 230.282 M178.091 230.973 C 178.091 232.176,178.130 232.668,178.177 232.067 C 178.225 231.465,178.225 230.481,178.177 229.879 C 178.130 229.277,178.091 229.770,178.091 230.973 M223.687 236.730 C 223.687 237.933,223.726 238.425,223.773 237.824 C 223.821 237.222,223.821 236.238,223.773 235.636 C 223.726 235.035,223.687 235.527,223.687 236.730 M177.861 236.960 C 177.861 238.164,177.900 238.656,177.947 238.054 C 177.994 237.453,177.994 236.468,177.947 235.866 C 177.900 235.265,177.861 235.757,177.861 236.960 M177.631 242.948 C 177.631 244.151,177.669 244.643,177.717 244.041 C 177.764 243.440,177.764 242.455,177.717 241.854 C 177.669 241.252,177.631 241.744,177.631 242.948 M223.918 243.063 C 223.919 244.329,223.958 244.818,224.004 244.149 C 224.051 243.480,224.050 242.443,224.003 241.846 C 223.956 241.249,223.918 241.796,223.918 243.063 M177.399 248.820 C 177.398 249.960,177.437 250.455,177.485 249.921 C 177.534 249.386,177.534 248.453,177.487 247.848 C 177.439 247.243,177.400 247.680,177.399 248.820 M224.149 249.511 C 224.149 250.777,224.188 251.266,224.235 250.597 C 224.281 249.928,224.281 248.891,224.233 248.294 C 224.186 247.697,224.148 248.244,224.149 249.511 M177.169 254.807 C 177.168 255.947,177.207 256.442,177.255 255.908 C 177.304 255.373,177.304 254.441,177.256 253.835 C 177.209 253.230,177.169 253.667,177.169 254.807 M224.378 255.843 C 224.378 257.047,224.417 257.539,224.464 256.937 C 224.511 256.336,224.511 255.351,224.464 254.750 C 224.417 254.148,224.378 254.640,224.378 255.843 M176.938 260.794 C 176.938 261.934,176.977 262.430,177.025 261.895 C 177.073 261.361,177.074 260.428,177.026 259.823 C 176.979 259.217,176.939 259.655,176.938 260.794 M224.609 262.176 C 224.610 263.443,224.648 263.931,224.695 263.262 C 224.742 262.593,224.741 261.557,224.694 260.959 C 224.647 260.362,224.609 260.910,224.609 262.176 M176.708 266.782 C 176.707 267.922,176.746 268.417,176.795 267.883 C 176.843 267.348,176.844 266.415,176.796 265.810 C 176.748 265.205,176.709 265.642,176.708 266.782 M224.838 268.739 C 224.838 269.942,224.877 270.435,224.925 269.833 C 224.972 269.231,224.972 268.247,224.925 267.645 C 224.877 267.044,224.838 267.536,224.838 268.739 M176.478 272.769 C 176.477 273.909,176.516 274.404,176.564 273.870 C 176.613 273.335,176.613 272.403,176.566 271.797 C 176.518 271.192,176.479 271.629,176.478 272.769 M225.070 275.072 C 225.070 276.339,225.109 276.827,225.156 276.158 C 225.202 275.489,225.202 274.453,225.155 273.855 C 225.107 273.258,225.069 273.805,225.070 275.072 M176.249 278.641 C 176.249 279.845,176.288 280.337,176.335 279.735 C 176.383 279.134,176.383 278.149,176.335 277.547 C 176.288 276.946,176.249 277.438,176.249 278.641 M225.299 281.405 C 225.299 282.608,225.338 283.100,225.385 282.499 C 225.433 281.897,225.433 280.912,225.385 280.311 C 225.338 279.709,225.299 280.201,225.299 281.405 M176.019 284.629 C 176.019 285.832,176.057 286.324,176.105 285.723 C 176.152 285.121,176.152 284.136,176.105 283.535 C 176.057 282.933,176.019 283.425,176.019 284.629 M225.530 287.737 C 225.531 289.004,225.570 289.493,225.616 288.824 C 225.663 288.154,225.662 287.118,225.615 286.521 C 225.568 285.923,225.530 286.471,225.530 287.737 M175.786 290.616 C 175.786 291.693,175.825 292.133,175.874 291.595 C 175.922 291.056,175.922 290.176,175.874 289.637 C 175.825 289.099,175.786 289.539,175.786 290.616 M225.761 294.185 C 225.761 295.452,225.800 295.941,225.846 295.271 C 225.893 294.602,225.893 293.566,225.845 292.969 C 225.798 292.371,225.760 292.919,225.761 294.185 M175.557 296.488 C 175.556 297.628,175.595 298.123,175.643 297.589 C 175.692 297.055,175.692 296.122,175.645 295.516 C 175.597 294.911,175.557 295.348,175.557 296.488 M225.990 300.518 C 225.990 301.721,226.029 302.214,226.076 301.612 C 226.123 301.010,226.123 300.026,226.076 299.424 C 226.029 298.823,225.990 299.315,225.990 300.518 M175.326 302.476 C 175.326 303.615,175.365 304.111,175.413 303.576 C 175.461 303.042,175.462 302.109,175.414 301.504 C 175.367 300.898,175.327 301.336,175.326 302.476 M226.220 306.966 C 226.220 308.169,226.259 308.661,226.306 308.060 C 226.354 307.458,226.354 306.474,226.306 305.872 C 226.259 305.271,226.220 305.763,226.220 306.966 M175.096 308.463 C 175.095 309.603,175.134 310.098,175.183 309.564 C 175.231 309.029,175.232 308.097,175.184 307.491 C 175.136 306.886,175.097 307.323,175.096 308.463 M226.450 313.414 C 226.450 314.617,226.489 315.109,226.537 314.508 C 226.584 313.906,226.584 312.922,226.537 312.320 C 226.489 311.718,226.450 312.211,226.450 313.414 M174.866 314.450 C 174.865 315.590,174.904 316.085,174.952 315.551 C 175.001 315.017,175.001 314.084,174.954 313.478 C 174.906 312.873,174.867 313.310,174.866 314.450 M226.682 319.747 C 226.682 321.013,226.721 321.502,226.768 320.833 C 226.814 320.164,226.814 319.127,226.767 318.530 C 226.719 317.933,226.681 318.480,226.682 319.747 M174.636 320.438 C 174.635 321.577,174.674 322.073,174.722 321.538 C 174.770 321.004,174.771 320.071,174.723 319.466 C 174.676 318.860,174.636 319.298,174.636 320.438 M226.911 326.079 C 226.911 327.283,226.950 327.775,226.997 327.173 C 227.045 326.572,227.045 325.587,226.997 324.986 C 226.950 324.384,226.911 324.876,226.911 326.079 M174.407 326.310 C 174.407 327.513,174.445 328.005,174.493 327.404 C 174.540 326.802,174.540 325.818,174.493 325.216 C 174.445 324.614,174.407 325.107,174.407 326.310 M174.176 332.297 C 174.176 333.500,174.215 333.993,174.263 333.391 C 174.310 332.789,174.310 331.805,174.263 331.203 C 174.215 330.602,174.176 331.094,174.176 332.297 M227.142 332.412 C 227.143 333.679,227.182 334.168,227.228 333.498 C 227.275 332.829,227.274 331.793,227.227 331.196 C 227.180 330.598,227.142 331.146,227.142 332.412 M173.945 338.169 C 173.944 339.309,173.983 339.805,174.031 339.270 C 174.080 338.736,174.080 337.803,174.033 337.198 C 173.985 336.592,173.945 337.029,173.945 338.169 M227.373 338.860 C 227.373 340.127,227.412 340.615,227.458 339.946 C 227.505 339.277,227.505 338.241,227.457 337.643 C 227.410 337.046,227.372 337.594,227.373 338.860 M173.714 344.157 C 173.714 345.296,173.753 345.792,173.801 345.257 C 173.849 344.723,173.850 343.790,173.802 343.185 C 173.755 342.579,173.715 343.017,173.714 344.157 M227.602 345.193 C 227.602 346.396,227.641 346.888,227.688 346.287 C 227.735 345.685,227.735 344.701,227.688 344.099 C 227.641 343.497,227.602 343.990,227.602 345.193 M173.484 350.144 C 173.483 351.284,173.522 351.779,173.571 351.245 C 173.619 350.710,173.620 349.778,173.572 349.172 C 173.524 348.567,173.485 349.004,173.484 350.144 M227.832 351.641 C 227.832 352.844,227.871 353.336,227.918 352.735 C 227.966 352.133,227.966 351.149,227.918 350.547 C 227.871 349.945,227.832 350.438,227.832 351.641 M173.254 356.131 C 173.253 357.271,173.292 357.767,173.340 357.232 C 173.389 356.698,173.389 355.765,173.342 355.160 C 173.294 354.554,173.255 354.991,173.254 356.131 M228.063 357.974 C 228.064 359.240,228.103 359.729,228.149 359.060 C 228.196 358.390,228.195 357.354,228.148 356.757 C 228.101 356.159,228.063 356.707,228.063 357.974 M173.024 362.119 C 173.023 363.258,173.062 363.754,173.110 363.219 C 173.158 362.685,173.159 361.752,173.111 361.147 C 173.064 360.541,173.024 360.979,173.024 362.119 M228.291 364.191 C 228.291 365.331,228.330 365.826,228.378 365.292 C 228.426 364.757,228.427 363.825,228.379 363.219 C 228.332 362.614,228.292 363.051,228.291 364.191 M172.712 366.110 C 172.712 366.292,172.123 366.379,170.883 366.379 C 169.877 366.379,169.006 366.457,168.947 366.552 C 168.888 366.647,169.685 366.691,170.718 366.650 C 172.489 366.580,173.227 366.357,172.869 365.999 C 172.782 365.912,172.712 365.962,172.712 366.110 M229.533 366.542 L 230.741 366.633 230.801 401.451 L 230.860 436.269 230.859 401.382 L 230.858 366.494 229.591 366.472 L 228.325 366.450 229.533 366.542 M176.223 419.171 L 176.281 471.042 186.183 471.042 L 196.085 471.042 196.143 419.171 L 196.201 367.300 186.183 367.300 L 176.165 367.300 176.223 419.171 M203.626 419.171 L 203.685 471.042 213.587 471.042 L 223.489 471.042 223.547 419.171 L 223.605 367.300 213.587 367.300 L 203.568 367.300 203.626 419.171 M231.057 440.875 C 231.058 442.142,231.096 442.630,231.143 441.961 C 231.190 441.292,231.189 440.256,231.142 439.658 C 231.095 439.061,231.056 439.609,231.057 440.875 M231.287 447.323 C 231.288 448.590,231.327 449.078,231.373 448.409 C 231.420 447.740,231.419 446.704,231.372 446.106 C 231.325 445.509,231.287 446.056,231.287 447.323 M231.518 453.771 C 231.518 455.037,231.557 455.526,231.604 454.857 C 231.650 454.188,231.650 453.152,231.602 452.554 C 231.555 451.957,231.517 452.504,231.518 453.771 M231.747 460.104 C 231.747 461.307,231.786 461.799,231.833 461.197 C 231.880 460.596,231.880 459.611,231.833 459.010 C 231.786 458.408,231.747 458.900,231.747 460.104 M231.978 466.436 C 231.979 467.703,232.017 468.192,232.064 467.523 C 232.111 466.853,232.110 465.817,232.063 465.220 C 232.016 464.622,231.978 465.170,231.978 466.436 " stroke="none" fill-rule="evenodd" style="fill: rgba(85, 57, 72, 0.82);"/>
    <path id="path4" d="M100.189 100.176 C 98.441 100.588,98.019 102.685,99.462 103.792 C 99.745 104.010,107.939 104.074,136.050 104.080 L 172.272 104.088 172.837 103.522 C 174.003 102.356,173.382 100.562,171.675 100.167 C 170.536 99.903,101.311 99.911,100.189 100.176 M224.180 100.056 C 224.053 100.098,223.666 100.195,223.320 100.271 C 222.044 100.552,221.643 102.256,222.588 103.379 L 223.184 104.088 258.523 104.088 L 293.861 104.088 294.426 103.522 C 295.592 102.356,294.971 100.562,293.264 100.167 C 292.428 99.973,224.753 99.864,224.180 100.056 M27.869 391.653 C 25.525 392.830,25.370 396.364,27.601 397.751 L 28.440 398.273 91.117 398.273 L 153.795 398.273 154.445 397.791 C 156.764 396.073,156.634 392.777,154.201 391.623 C 152.937 391.023,29.064 391.052,27.869 391.653 M242.454 391.746 C 239.959 393.193,240.105 396.533,242.722 397.870 L 243.736 398.388 304.194 398.383 C 362.655 398.378,364.683 398.364,365.596 397.949 C 368.239 396.749,368.411 393.463,365.921 391.767 L 365.159 391.249 304.226 391.255 L 243.293 391.260 242.454 391.746 " stroke="none" fill="#fbfbfb" fill-rule="evenodd"/>
  </g>
  <path d="M 88.211 115.595 L 310.534 116.253 C 311.063 118.502 312.506 124.603 314.236 132.443 C 314.95 135.674 315.59 138.68 315.982 140.755 L 81.439 142.069 Z" style="paint-order: fill markers; stroke: rgba(0, 0, 0, 0.09); fill: rgba(144, 187, 45, 0.67); transform-origin: 4px 133.471px;"/>
  <path d="M 81.473 142.406 L 315.958 140.418 L 330.531 192.084 L 69.551 195.396 L 81.473 142.406 Z" style="paint-order: fill markers; stroke: rgba(0, 0, 0, 0.09); transform-origin: 0.688px 160.621px; fill: rgba(93, 93, 197, 0.67);"/>
  <path d="M 69.22 193.747 L 329.537 192.423 L 340.797 239.453 L 59.284 239.452 L 69.22 193.747 Z" style="paint-order: fill markers; stroke: rgba(0, 0, 0, 0.09); fill: rgba(168, 98, 98, 0.67); transform-origin: -6.267px 215.275px;"/>
  <path d="M 58.551 240.019 L 342.2 239.452 L 396.436 468.873 L 4.305 471.287 L 58.551 240.019 Z" style="paint-order: fill markers; stroke: rgba(0, 0, 0, 0.09); fill: rgba(14, 96, 46, 0.67); transform-origin: -12.429px 304.412px;"/>
  <text style="fill: rgb(51, 51, 51); font-family: Centaur; font-size: 14px; font-weight: 700; white-space: pre;" x="111.109" y="133.219">Yorker</text>
  <text style="fill: rgb(51, 51, 51); font-family: Centaur; font-size: 14px; font-weight: 700; white-space: pre;" x="111.061" y="172.881">Full</text>
  <text style="fill: rgb(51, 51, 51); font-family: Centaur; font-size: 14px; font-weight: 700; white-space: pre;" x="101.788" y="219.249">Good</text>
  <text style="fill: rgb(51, 51, 51); font-family: Centaur; font-size: 14px; font-weight: 700; white-space: pre;" x="97.151" y="268.928" transform="matrix(1, 0, 0, 1, -1.324769, -1.324769)">Short<tspan x="97.1510009765625" dy="1em"></tspan></text>
  <text style="fill: rgb(51, 51, 51); font-family: Centaur; font-size: 16px; font-weight: 700; white-space: pre;" x="20.751" y="92.737">STUMPS</text>
  <text style="fill: rgb(51, 51, 51); font-family: Centaur; font-size: 16px; font-weight: 700; white-space: pre;" x="30.58" y="123.597">2m</text>
  <text style="fill: rgb(51, 51, 51); font-family: Centaur; font-size: 16px; font-weight: 700; white-space: pre;" transform="matrix(1.232738, 0, 0, 1, -13.088883, 9.378768)" x="31.673" y="145.371">4m</text>
  <text style="fill: rgb(51, 51, 51); font-family: Centaur; font-size: 16px; font-weight: 700; white-space: pre;" x="27.653" y="192.935">6m</text>
  <text style="fill: rgb(51, 51, 51); font-family: Centaur; font-size: 16px; font-weight: 700; white-space: pre;" x="25.644" y="238.489">8m</text>
  <text style="fill: rgb(51, 51, 51); font-family: Centaur; font-size: 16px; font-weight: 700; white-space: pre;" x="-0.18" y="289.737" transform="matrix(0.817839, 0, 0, 0.822336, 3.05968, 45.060009)">Halfway</text>
  <path d="M 270.088 60.292 L 271.429 63.642 L 351.148 468.268 L 351.148 466.928 L 270.088 60.292 Z" style="fill: rgb(216, 216, 216); stroke: rgb(0, 0, 0);"/>
  <path d="M 237.597 64.423 L 238.27 64.424 L 275.783 467.71 L 275.784 469.05 C 268.768 434.846 240.642 39.279 237.597 64.423 Z" style="fill: rgb(216, 216, 216); stroke: rgb(0, 0, 0);"/>
  <path d="M 157.878 64.423 L 157.879 64.424 L 102.945 465.7 L 102.275 466.37 L 157.878 64.423 Z" style="fill: rgb(216, 216, 216); stroke: rgb(0, 0, 0);"/>
  <path d="M 125.052 63.976 L 124.383 63.307 L 42.653 465.923 L 43.323 465.253 L 125.052 63.976 Z" style="fill: rgb(216, 216, 216); stroke: rgb(0, 0, 0);"/>
</svg>